<svg width="412" height="23" viewBox="0 0 412 23" fill="none" xmlns="http://www.w3.org/2000/svg">
<path d="M8.42969 0.679688C8.97656 0.679688 9.46875 0.773438 9.90625 0.960938C10.3594 1.13281 10.7734 1.32812 11.1484 1.54688C11.5391 1.76562 11.9062 1.96875 12.25 2.15625C12.5938 2.32812 12.9453 2.41406 13.3047 2.41406C13.5859 2.39844 13.9062 2.35938 14.2656 2.29688C14.5781 2.23438 14.9375 2.14062 15.3438 2.01562C15.7656 1.875 16.2344 1.67188 16.75 1.40625C16.2344 1.90625 15.8125 2.32812 15.4844 2.67188C15.1719 3 14.9297 3.27344 14.7578 3.49219C14.5547 3.74219 14.4062 3.9375 14.3125 4.07812C14.2188 4.25 14.0781 4.50781 13.8906 4.85156C13.7188 5.16406 13.4844 5.58594 13.1875 6.11719C12.8906 6.63281 12.5156 7.3125 12.0625 8.15625C12.0625 7.07812 11.9531 6.24219 11.7344 5.64844C11.5312 5.05469 11.3047 4.60156 11.0547 4.28906C10.7578 3.92969 10.4219 3.70312 10.0469 3.60938C9.70312 3.5625 9.35938 3.625 9.01562 3.79688C8.67188 3.95312 8.32812 4.1875 7.98438 4.5C7.65625 4.8125 7.33594 5.1875 7.02344 5.625C6.72656 6.04688 6.45312 6.49219 6.20312 6.96094C5.96875 7.42969 5.77344 7.90625 5.61719 8.39062C5.46094 8.85938 5.35938 9.29688 5.3125 9.70312C5.26562 10.0625 5.25781 10.4844 5.28906 10.9688C5.32031 11.4375 5.39062 11.9219 5.5 12.4219C5.60938 12.9062 5.75 13.3828 5.92188 13.8516C6.09375 14.3203 6.30469 14.7422 6.55469 15.1172C6.82031 15.4766 7.11719 15.7734 7.44531 16.0078C7.77344 16.2266 8.14844 16.3281 8.57031 16.3125C9.03906 16.2812 9.5 16.1406 9.95312 15.8906C10.3438 15.6875 10.7422 15.375 11.1484 14.9531C11.5547 14.5156 11.9062 13.8984 12.2031 13.1016L15.6719 13.7344C14.6719 14.9531 13.6953 15.8672 12.7422 16.4766C11.8047 17.0859 10.9609 17.5156 10.2109 17.7656C9.33594 18.0469 8.50781 18.1797 7.72656 18.1641C6.74219 18.0547 5.82031 17.7578 4.96094 17.2734C4.10156 16.7891 3.35938 16.2031 2.73438 15.5156C2.125 14.8125 1.64844 14.0469 1.30469 13.2188C0.960938 12.3906 0.8125 11.5781 0.859375 10.7812C0.890625 10.25 1 9.63281 1.1875 8.92969C1.375 8.21094 1.625 7.47656 1.9375 6.72656C2.26562 5.97656 2.65625 5.24219 3.10938 4.52344C3.5625 3.80469 4.0625 3.16406 4.60938 2.60156C5.15625 2.02344 5.75 1.5625 6.39062 1.21875C7.04688 0.859375 7.72656 0.679688 8.42969 0.679688ZM15.7891 0.234375C16.1484 0.296875 16.4766 0.34375 16.7734 0.375C17.0703 0.390625 17.3203 0.40625 17.5234 0.421875C17.7578 0.4375 17.9609 0.445312 18.1328 0.445312C18.3672 0.429688 18.6406 0.40625 18.9531 0.375C19.2188 0.34375 19.5391 0.304688 19.9141 0.257812C20.3047 0.210938 20.75 0.148438 21.25 0.0703125C21.0156 0.195312 20.8203 0.320312 20.6641 0.445312C20.5078 0.554688 20.3828 0.671875 20.2891 0.796875C20.1797 0.9375 20.0938 1.07031 20.0312 1.19531C19.9531 1.39844 19.8672 1.82031 19.7734 2.46094C19.6797 3.00781 19.5625 3.82031 19.4219 4.89844C19.2969 5.97656 19.1328 7.4375 18.9297 9.28125C19.4922 8.71875 20.0234 8.29688 20.5234 8.01562C21.0391 7.71875 21.4922 7.50781 21.8828 7.38281C22.3359 7.24219 22.7578 7.17188 23.1484 7.17188C23.6328 7.21875 24.125 7.375 24.625 7.64062C25.1406 7.89062 25.6172 8.1875 26.0547 8.53125C26.5078 8.875 26.8984 9.24219 27.2266 9.63281C27.5703 10.0234 27.8125 10.3672 27.9531 10.6641C28.0469 10.8672 28.0938 11.1328 28.0938 11.4609C28.0938 11.7734 28.0625 12.1172 28 12.4922C27.9375 12.8672 27.8516 13.25 27.7422 13.6406C27.6328 14.0312 27.5234 14.3984 27.4141 14.7422C27.3203 15.0859 27.2344 15.3906 27.1562 15.6562C27.0781 15.9062 27.0312 16.0859 27.0156 16.1953C26.9844 16.4297 27 16.6562 27.0625 16.875C27.1094 17.0625 27.2031 17.2656 27.3438 17.4844C27.4844 17.6875 27.6953 17.8594 27.9766 18C27.7578 17.9688 27.5234 17.9453 27.2734 17.9297C27.0391 17.8984 26.8125 17.875 26.5938 17.8594C26.3438 17.8438 26.0938 17.8359 25.8438 17.8359H25C24.7344 17.8359 24.4297 17.8438 24.0859 17.8594C23.7422 17.8594 23.3672 17.8672 22.9609 17.8828C23.1797 17.8047 23.3672 17.7031 23.5234 17.5781C23.6797 17.4375 23.8125 17.3047 23.9219 17.1797C24.0469 17.0391 24.1562 16.8906 24.25 16.7344C24.3125 16.6094 24.3906 16.375 24.4844 16.0312C24.5781 15.6719 24.6641 15.2656 24.7422 14.8125C24.8203 14.3438 24.875 13.8516 24.9062 13.3359C24.9531 12.8203 24.9609 12.3281 24.9297 11.8594C24.9141 11.375 24.8438 10.9453 24.7188 10.5703C24.6094 10.1953 24.4375 9.92188 24.2031 9.75C23.5 9.21875 22.8594 8.96094 22.2812 8.97656C21.7188 8.97656 21.1797 9.20312 20.6641 9.65625C20.4766 9.82812 20.2969 10 20.125 10.1719C19.9688 10.3281 19.7969 10.5156 19.6094 10.7344C19.4219 10.9375 19.25 11.1484 19.0938 11.3672C19.0938 11.6016 19.1016 11.8594 19.1172 12.1406C19.1328 12.4219 19.1484 12.6953 19.1641 12.9609C19.1797 13.2578 19.2031 13.5547 19.2344 13.8516C19.2656 14.3047 19.3125 14.75 19.375 15.1875C19.4219 15.5625 19.4844 15.9766 19.5625 16.4297C19.6406 16.8672 19.7422 17.2656 19.8672 17.625C19.6641 17.5938 19.4531 17.5859 19.2344 17.6016C19.0156 17.6016 18.8047 17.6016 18.6016 17.6016C18.3672 17.6172 18.1406 17.625 17.9219 17.625C17.7188 17.6406 17.5078 17.6641 17.2891 17.6953C17.1016 17.7266 16.8984 17.7578 16.6797 17.7891C16.4609 17.8047 16.25 17.8359 16.0469 17.8828C16.2344 17.5234 16.3906 17.1719 16.5156 16.8281C16.6406 16.4688 16.7422 16.1562 16.8203 15.8906C16.9141 15.5781 16.9922 15.2734 17.0547 14.9766C17.1016 14.7422 17.1328 14.2969 17.1484 13.6406C17.1797 12.9688 17.2031 12.2031 17.2188 11.3438C17.2344 10.4688 17.2422 9.54688 17.2422 8.57812C17.2422 7.60938 17.2344 6.6875 17.2188 5.8125C17.2031 4.9375 17.1719 4.17188 17.125 3.51562C17.0938 2.85938 17.0547 2.40625 17.0078 2.15625C16.9453 1.90625 16.8594 1.65625 16.75 1.40625C16.6562 1.1875 16.5312 0.976562 16.375 0.773438C16.2188 0.554688 16.0234 0.375 15.7891 0.234375ZM30.7891 8.50781C30.8672 8.41406 30.9141 8.24219 30.9297 7.99219C30.9609 7.72656 31.0234 7.42969 31.1172 7.10156C31.2266 6.77344 31.4062 6.42969 31.6562 6.07031C31.9062 5.71094 32.3125 5.375 32.875 5.0625C33.4219 4.75 33.9531 4.5625 34.4688 4.5C34.9844 4.4375 35.4766 4.46094 35.9453 4.57031C36.4141 4.67969 36.8516 4.85156 37.2578 5.08594C37.6797 5.32031 38.0625 5.57812 38.4062 5.85938C38.6406 6.04688 38.8281 6.32031 38.9688 6.67969C39.1094 7.02344 39.2188 7.41406 39.2969 7.85156C39.375 8.28906 39.4297 8.75 39.4609 9.23438C39.5078 9.70312 39.5391 10.1641 39.5547 10.6172C39.5703 11.0547 39.5781 11.4609 39.5781 11.8359C39.5938 12.1953 39.625 12.4922 39.6719 12.7266C39.7344 13.0703 39.8438 13.3672 40 13.6172C40.1562 13.8516 40.3281 14.0547 40.5156 14.2266C40.7031 14.3828 40.8906 14.5078 41.0781 14.6016C41.2656 14.6953 41.4297 14.7656 41.5703 14.8125C41.6641 14.8594 41.75 14.8906 41.8281 14.9062C41.9844 14.9688 42.0938 14.9688 42.1562 14.9062C42.0625 15.125 41.9766 15.3125 41.8984 15.4688C41.8203 15.625 41.7578 15.7578 41.7109 15.8672C41.6484 15.9922 41.5938 16.0938 41.5469 16.1719C41.5 16.2656 41.4453 16.3516 41.3828 16.4297C41.3359 16.5078 41.2734 16.5938 41.1953 16.6875C41.1172 16.7812 41.0391 16.8828 40.9609 16.9922C40.7578 16.9141 40.5625 16.8203 40.375 16.7109C40.2031 16.6016 40.0469 16.5 39.9062 16.4062C39.7344 16.2969 39.5781 16.1875 39.4375 16.0781C39.2969 15.9688 39.1641 15.8438 39.0391 15.7031C38.9297 15.5781 38.8125 15.4453 38.6875 15.3047C38.5781 15.1641 38.4844 15.0078 38.4062 14.8359C38.3125 15.0391 38.0859 15.3281 37.7266 15.7031C37.3828 16.0781 36.9297 16.4219 36.3672 16.7344C35.8047 17.0312 35.1484 17.2422 34.3984 17.3672C33.6641 17.4922 32.8516 17.4062 31.9609 17.1094C31.5703 16.9844 31.2031 16.8047 30.8594 16.5703C30.5156 16.3203 30.2188 16.0234 29.9688 15.6797C29.7344 15.3359 29.5625 14.9453 29.4531 14.5078C29.3594 14.0547 29.3672 13.5547 29.4766 13.0078C29.5859 12.4609 29.7812 12 30.0625 11.625C30.3438 11.25 30.6797 10.9453 31.0703 10.7109C31.4609 10.4766 31.8984 10.2969 32.3828 10.1719C32.8672 10.0469 33.3672 9.96094 33.8828 9.91406C34.2891 9.89844 34.6953 9.92188 35.1016 9.98438C35.4453 10.0469 35.8047 10.1641 36.1797 10.3359C36.5547 10.4922 36.875 10.7344 37.1406 11.0625C37.125 10.2344 37.0938 9.57812 37.0469 9.09375C37.0156 8.59375 36.9844 8.21094 36.9531 7.94531C36.8906 7.63281 36.8359 7.41406 36.7891 7.28906C36.7109 7.17969 36.625 7.05469 36.5312 6.91406C36.4531 6.77344 36.3516 6.64844 36.2266 6.53906C36.1016 6.41406 35.9453 6.3125 35.7578 6.23438C35.5703 6.15625 35.3516 6.125 35.1016 6.14062C34.8359 6.15625 34.625 6.22656 34.4688 6.35156C34.3125 6.47656 34.1875 6.625 34.0938 6.79688C34.0156 6.95312 33.9688 7.125 33.9531 7.3125C33.9375 7.5 33.9453 7.66406 33.9766 7.80469C34.0078 7.89844 34.0547 8 34.1172 8.10938C34.1797 8.20312 34.2656 8.30469 34.375 8.41406C34.4844 8.52344 34.6328 8.61719 34.8203 8.69531C34.4609 8.74219 34.1406 8.78125 33.8594 8.8125C33.5781 8.82812 33.3359 8.85156 33.1328 8.88281C32.8984 8.91406 32.6953 8.9375 32.5234 8.95312C32.3516 8.96875 32.1484 9 31.9141 9.04688C31.7109 9.07812 31.4609 9.11719 31.1641 9.16406C30.8672 9.21094 30.5234 9.27344 30.1328 9.35156C30.2266 9.24219 30.3125 9.14062 30.3906 9.04688C30.4688 8.9375 30.5391 8.84375 30.6016 8.76562C30.6641 8.67188 30.7266 8.58594 30.7891 8.50781ZM34.3047 11.2969C34.0234 11.3125 33.7422 11.3828 33.4609 11.5078C33.1797 11.6172 32.9297 11.7812 32.7109 12C32.4922 12.2031 32.3047 12.4453 32.1484 12.7266C32.0078 12.9922 31.9375 13.2891 31.9375 13.6172C31.9375 13.9453 32.0156 14.2344 32.1719 14.4844C32.3438 14.7188 32.5625 14.9141 32.8281 15.0703C33.1094 15.2266 33.4062 15.3203 33.7188 15.3516C34.0469 15.3828 34.3672 15.3516 34.6797 15.2578C34.9766 15.1484 35.2578 14.9766 35.5234 14.7422C35.7891 14.4922 36.0156 14.2266 36.2031 13.9453C36.3906 13.6484 36.5234 13.3594 36.6016 13.0781C36.6797 12.7812 36.6875 12.5391 36.625 12.3516C36.5 11.9453 36.2188 11.6641 35.7812 11.5078C35.3438 11.3359 34.8516 11.2656 34.3047 11.2969ZM42.4609 18.6562C42.6172 18.4219 42.7422 18.2031 42.8359 18C42.9297 17.7969 43.0078 17.625 43.0703 17.4844C43.1328 17.3125 43.1797 17.1562 43.2109 17.0156C43.2266 16.9219 43.2344 16.6484 43.2344 16.1953C43.2344 15.7422 43.2188 15.1719 43.1875 14.4844C43.1719 13.7969 43.1484 13.0234 43.1172 12.1641C43.1016 11.3047 43.0703 10.4297 43.0234 9.53906C42.9922 8.64844 42.9531 7.78125 42.9062 6.9375C42.875 6.09375 42.8438 5.33594 42.8125 4.66406C42.7812 3.97656 42.75 3.41406 42.7188 2.97656C42.6875 2.53906 42.6641 2.28906 42.6484 2.22656C42.6172 2.13281 42.5625 2.03906 42.4844 1.94531C42.3281 1.75781 42.0625 1.57812 41.6875 1.40625C42.4844 1.20312 43.0938 1.03906 43.5156 0.914062C43.7656 0.851562 43.9844 0.789062 44.1719 0.726562C44.3438 0.664062 44.5156 0.601562 44.6875 0.539062C44.8281 0.476562 44.9844 0.40625 45.1562 0.328125C45.3281 0.234375 45.4844 0.132812 45.625 0.0234375C45.5469 0.476562 45.4844 0.914062 45.4375 1.33594C45.3906 1.75781 45.3516 2.14844 45.3203 2.50781C45.2891 2.91406 45.2734 3.30469 45.2734 3.67969C45.1953 4.44531 45.1484 5.28125 45.1328 6.1875C45.1328 7.07812 45.1406 7.98438 45.1562 8.90625C45.1719 9.82812 45.2031 10.7266 45.25 11.6016C45.2969 12.4766 45.3438 13.2734 45.3906 13.9922C45.4531 14.6953 45.5078 15.2969 45.5547 15.7969C45.6172 16.2812 45.6641 16.5938 45.6953 16.7344C45.7578 16.9688 45.8203 17.1953 45.8828 17.4141C45.9453 17.6016 46.0156 17.7969 46.0938 18C46.1719 18.2188 46.2656 18.3906 46.375 18.5156H44.1016C43.8984 18.5156 43.7031 18.5234 43.5156 18.5391C43.3438 18.5547 43.1641 18.5703 42.9766 18.5859C42.7891 18.6016 42.6172 18.625 42.4609 18.6562ZM47.7578 18.6562C47.9141 18.4219 48.0391 18.2031 48.1328 18C48.2266 17.7969 48.3047 17.625 48.3672 17.4844C48.4297 17.3125 48.4766 17.1562 48.5078 17.0156C48.5234 16.9219 48.5312 16.6484 48.5312 16.1953C48.5312 15.7422 48.5156 15.1719 48.4844 14.4844C48.4688 13.7969 48.4453 13.0234 48.4141 12.1641C48.3984 11.3047 48.3672 10.4297 48.3203 9.53906C48.2891 8.64844 48.25 7.78125 48.2031 6.9375C48.1719 6.09375 48.1406 5.33594 48.1094 4.66406C48.0781 3.97656 48.0469 3.41406 48.0156 2.97656C47.9844 2.53906 47.9609 2.28906 47.9453 2.22656C47.9141 2.13281 47.8594 2.03906 47.7812 1.94531C47.625 1.75781 47.3594 1.57812 46.9844 1.40625C47.7812 1.20312 48.3906 1.03906 48.8125 0.914062C49.0625 0.851562 49.2812 0.789062 49.4688 0.726562C49.6406 0.664062 49.8125 0.601562 49.9844 0.539062C50.125 0.476562 50.2812 0.40625 50.4531 0.328125C50.625 0.234375 50.7812 0.132812 50.9219 0.0234375C50.8438 0.476562 50.7812 0.914062 50.7344 1.33594C50.6875 1.75781 50.6484 2.14844 50.6172 2.50781C50.5859 2.91406 50.5703 3.30469 50.5703 3.67969C50.4922 4.44531 50.4453 5.28125 50.4297 6.1875C50.4297 7.07812 50.4375 7.98438 50.4531 8.90625C50.4688 9.82812 50.5 10.7266 50.5469 11.6016C50.5938 12.4766 50.6406 13.2734 50.6875 13.9922C50.75 14.6953 50.8047 15.2969 50.8516 15.7969C50.9141 16.2812 50.9609 16.5938 50.9922 16.7344C51.0547 16.9688 51.1172 17.1953 51.1797 17.4141C51.2422 17.6016 51.3125 17.7969 51.3906 18C51.4688 18.2188 51.5625 18.3906 51.6719 18.5156H49.3984C49.1953 18.5156 49 18.5234 48.8125 18.5391C48.6406 18.5547 48.4609 18.5703 48.2734 18.5859C48.0859 18.6016 47.9141 18.625 47.7578 18.6562ZM58.6094 14.2266C59.0469 14.2266 59.4531 14.1797 59.8281 14.0859C60.1406 14.0078 60.4375 13.8828 60.7188 13.7109C61.0156 13.5234 61.2109 13.25 61.3047 12.8906C61.6172 12.9531 61.8828 13.0078 62.1016 13.0547C62.3203 13.0859 62.5078 13.1172 62.6641 13.1484C62.8359 13.1953 62.9844 13.2266 63.1094 13.2422C63.2344 13.2734 63.3828 13.3047 63.5547 13.3359C63.7109 13.3672 63.8984 13.4062 64.1172 13.4531C64.3516 13.4844 64.625 13.5312 64.9375 13.5938C64.7031 13.5625 64.4609 13.5859 64.2109 13.6641C63.9766 13.7422 63.75 13.8281 63.5312 13.9219C63.2812 14.0312 63.0469 14.1641 62.8281 14.3203C62.6875 14.4141 62.5234 14.5547 62.3359 14.7422C62.1641 14.9297 61.9141 15.1094 61.5859 15.2812C61.2578 15.4531 60.8203 15.6016 60.2734 15.7266C59.7422 15.8359 59.0547 15.875 58.2109 15.8438C57.1953 15.8125 56.3438 15.6328 55.6562 15.3047C54.9688 14.9609 54.4141 14.5469 53.9922 14.0625C53.5703 13.5625 53.2656 13.0234 53.0781 12.4453C52.8906 11.8672 52.7891 11.3281 52.7734 10.8281C52.7578 10.3281 52.9062 9.80469 53.2188 9.25781C53.5312 8.71094 53.9688 8.21094 54.5312 7.75781C55.1094 7.30469 55.8047 6.9375 56.6172 6.65625C57.4297 6.35938 58.3203 6.21094 59.2891 6.21094C59.8516 6.21094 60.3672 6.28125 60.8359 6.42188C61.3203 6.54688 61.7578 6.71875 62.1484 6.9375C62.5547 7.15625 62.9062 7.40625 63.2031 7.6875C63.5 7.95312 63.75 8.22656 63.9531 8.50781C64.1562 8.80469 64.3281 9.11719 64.4688 9.44531C64.5938 9.72656 64.6953 10.0469 64.7734 10.4062C64.8516 10.7656 64.875 11.1328 64.8438 11.5078C63.6562 11.5391 62.6953 11.5625 61.9609 11.5781C61.2422 11.5938 60.6797 11.6016 60.2734 11.6016H59.2188H58.4219C58.1406 11.6016 57.7734 11.6094 57.3203 11.625C56.8672 11.6406 56.3125 11.6641 55.6562 11.6953C55.7344 12.3203 55.9297 12.8047 56.2422 13.1484C56.5703 13.4766 56.9141 13.7266 57.2734 13.8984C57.6797 14.0859 58.125 14.1953 58.6094 14.2266ZM56.5 10.0078C57 10.0391 57.4141 10.0625 57.7422 10.0781C58.0859 10.0938 58.3672 10.1094 58.5859 10.125C58.8203 10.1406 59.0078 10.1484 59.1484 10.1484H59.7344C60.125 10.1484 60.8516 10.125 61.9141 10.0781C61.8672 9.39062 61.7188 8.86719 61.4688 8.50781C61.2344 8.14844 60.9844 7.88281 60.7188 7.71094C60.4062 7.52344 60.0625 7.41406 59.6875 7.38281C58.6719 7.39844 57.9141 7.60938 57.4141 8.01562C56.9297 8.42188 56.625 9.08594 56.5 10.0078ZM66.5078 15.4219C66.6172 14.9062 66.6953 14.4531 66.7422 14.0625C66.8047 13.6562 66.8516 13.3203 66.8828 13.0547C66.9141 12.7422 66.9297 12.4766 66.9297 12.2578C66.9141 11.9922 66.8984 11.6797 66.8828 11.3203C66.8828 10.9453 66.8672 10.5781 66.8359 10.2188C66.8203 9.84375 66.7969 9.51562 66.7656 9.23438C66.7344 8.9375 66.6953 8.72656 66.6484 8.60156C66.5859 8.47656 66.5 8.34375 66.3906 8.20312C66.1719 7.9375 65.8516 7.67969 65.4297 7.42969C65.7891 7.35156 66.0938 7.28906 66.3438 7.24219C66.6094 7.17969 66.8281 7.125 67 7.07812C67.1875 7.01562 67.3516 6.96094 67.4922 6.91406C67.6172 6.86719 67.7656 6.82031 67.9375 6.77344C68.0781 6.74219 68.25 6.70312 68.4531 6.65625C68.6562 6.60938 68.8906 6.55469 69.1562 6.49219L69.0859 8.625C69.5859 8.03125 70.0938 7.58594 70.6094 7.28906C71.125 6.99219 71.6094 6.78125 72.0625 6.65625C72.5781 6.5 73.0859 6.42188 73.5859 6.42188C74.2109 6.45312 74.7891 6.55469 75.3203 6.72656C75.8672 6.89844 76.3359 7.10156 76.7266 7.33594C77.1328 7.55469 77.4609 7.78906 77.7109 8.03906C77.9609 8.28906 78.1094 8.50781 78.1562 8.69531C78.3438 9.30469 78.3906 9.86719 78.2969 10.3828C78.2031 10.8828 78.0781 11.375 77.9219 11.8594C77.7812 12.3281 77.6562 12.7969 77.5469 13.2656C77.4531 13.7344 77.4922 14.2422 77.6641 14.7891C77.7266 14.9297 77.7891 15.0703 77.8516 15.2109C77.9141 15.3359 77.9922 15.4609 78.0859 15.5859C78.1797 15.7109 78.2891 15.8125 78.4141 15.8906C78.2422 15.875 78.0703 15.8672 77.8984 15.8672C77.7266 15.8516 77.5703 15.8359 77.4297 15.8203C77.2578 15.8047 77.1016 15.7891 76.9609 15.7734C76.8047 15.7578 76.5938 15.75 76.3281 15.75C75.875 15.75 75.1719 15.7734 74.2188 15.8203C74.3594 15.4922 74.4688 15.2188 74.5469 15C74.6406 14.7656 74.7188 14.5781 74.7812 14.4375C74.8438 14.2656 74.8906 14.1328 74.9219 14.0391C75.1094 13.5859 75.2188 13.0703 75.25 12.4922C75.2969 11.9141 75.2578 11.3281 75.1328 10.7344C75.0859 10.5312 75.0078 10.2891 74.8984 10.0078C74.7891 9.72656 74.6406 9.45312 74.4531 9.1875C74.2812 8.92188 74.0703 8.69531 73.8203 8.50781C73.5859 8.32031 73.3125 8.21094 73 8.17969C72.6875 8.14844 72.3359 8.22656 71.9453 8.41406C71.5703 8.60156 71.1641 8.94531 70.7266 9.44531C70.3984 9.86719 70.1406 10.3828 69.9531 10.9922C69.7812 11.5078 69.6641 12.1562 69.6016 12.9375C69.5391 13.7031 69.6328 14.6016 69.8828 15.6328C69.6641 15.6016 69.4609 15.5859 69.2734 15.5859C69.0859 15.5703 68.9297 15.5547 68.8047 15.5391C68.6484 15.5234 68.5078 15.5078 68.3828 15.4922C68.2422 15.4922 68.0859 15.4844 67.9141 15.4688C67.7578 15.4688 67.5625 15.4688 67.3281 15.4688C67.0938 15.4531 66.8203 15.4375 66.5078 15.4219ZM90.9062 8.0625C90.8594 7.75 90.8203 7.49219 90.7891 7.28906C90.7578 7.07031 90.7266 6.89844 90.6953 6.77344C90.6641 6.61719 90.6406 6.5 90.625 6.42188C90.5938 6.34375 90.5547 6.25781 90.5078 6.16406C90.4766 6.08594 90.4219 5.99219 90.3438 5.88281C90.2812 5.77344 90.2031 5.64844 90.1094 5.50781C90.3125 5.57031 90.5156 5.60938 90.7188 5.625C90.9375 5.64062 91.1406 5.65625 91.3281 5.67188C91.5312 5.6875 91.7422 5.6875 91.9609 5.67188C92.1797 5.67188 92.4297 5.66406 92.7109 5.64844C92.9609 5.63281 93.2578 5.625 93.6016 5.625C93.9609 5.60938 94.3672 5.58594 94.8203 5.55469C94.5547 5.61719 94.3281 5.72656 94.1406 5.88281C93.9688 6.02344 93.8203 6.17969 93.6953 6.35156C93.5547 6.53906 93.4375 6.74219 93.3438 6.96094C93.2656 7.16406 93.2188 7.55469 93.2031 8.13281C93.1875 8.69531 93.1875 9.36719 93.2031 10.1484C93.2188 10.9141 93.2344 11.7422 93.25 12.6328C93.2812 13.5234 93.2969 14.375 93.2969 15.1875C93.3125 16 93.3125 16.7422 93.2969 17.4141C93.2812 18.0703 93.2422 18.5547 93.1797 18.8672C92.9609 19.8516 92.5547 20.6484 91.9609 21.2578C91.3672 21.8828 90.5859 22.2188 89.6172 22.2656C88.4453 22.3125 87.5156 22.2031 86.8281 21.9375C86.1562 21.6719 85.6328 21.3438 85.2578 20.9531C84.8828 20.5781 84.6016 20.1953 84.4141 19.8047C84.2266 19.4141 84.0312 19.1172 83.8281 18.9141C83.6406 18.7422 83.4531 18.5781 83.2656 18.4219C83.0938 18.2969 82.9141 18.1719 82.7266 18.0469C82.5547 17.9219 82.3828 17.8438 82.2109 17.8125C82.6641 17.8281 83.0703 17.8359 83.4297 17.8359C83.7891 17.8359 84.0938 17.8359 84.3438 17.8359C84.625 17.8359 84.875 17.8281 85.0938 17.8125H85.8438H87.9766C87.6641 17.9062 87.4297 18.0078 87.2734 18.1172C87.1172 18.2422 87.0078 18.3672 86.9453 18.4922C86.8828 18.6328 86.8516 18.7734 86.8516 18.9141C86.9141 19.2891 87.1172 19.5625 87.4609 19.7344C87.8047 19.9062 88.2734 20.0078 88.8672 20.0391C89.4453 20.0703 89.8438 20.0547 90.0625 19.9922C90.2812 19.9453 90.4531 19.8516 90.5781 19.7109C90.8281 19.3359 91.0391 18.8516 91.2109 18.2578C91.3359 17.7578 91.4219 17.1094 91.4688 16.3125C91.5312 15.5 91.4609 14.5078 91.2578 13.3359C90.7578 14.0234 90.1797 14.5391 89.5234 14.8828C88.8672 15.2266 88.2422 15.4766 87.6484 15.6328C86.9453 15.8047 86.2344 15.8906 85.5156 15.8906C83.625 15.8125 82.2109 15.375 81.2734 14.5781C80.3359 13.7812 79.9062 12.7109 79.9844 11.3672C80.0312 10.6953 80.2344 10.0234 80.5938 9.35156C80.9688 8.67969 81.4531 8.07812 82.0469 7.54688C82.6562 7.01562 83.3516 6.59375 84.1328 6.28125C84.9141 5.96875 85.7266 5.83594 86.5703 5.88281C87.2109 5.94531 87.8125 6.0625 88.375 6.23438C88.8594 6.39062 89.3359 6.60938 89.8047 6.89062C90.2891 7.17188 90.6562 7.5625 90.9062 8.0625ZM83.4531 10.4062C83.3594 11.0156 83.3984 11.5859 83.5703 12.1172C83.7578 12.6484 84.0156 13.1094 84.3438 13.5C84.6719 13.875 85.0391 14.1719 85.4453 14.3906C85.8516 14.5938 86.2344 14.6875 86.5938 14.6719C87.3438 14.6562 87.9922 14.3203 88.5391 13.6641C89.0859 12.9922 89.4141 11.9922 89.5234 10.6641C89.5703 10.0078 89.4844 9.44531 89.2656 8.97656C89.0625 8.49219 88.8047 8.10156 88.4922 7.80469C88.1797 7.50781 87.8516 7.29688 87.5078 7.17188C87.1641 7.04688 86.8906 6.99219 86.6875 7.00781C86.4062 7.03906 86.0938 7.125 85.75 7.26562C85.4219 7.39062 85.1016 7.58594 84.7891 7.85156C84.4766 8.10156 84.1953 8.4375 83.9453 8.85938C83.7109 9.28125 83.5469 9.79688 83.4531 10.4062ZM101.125 14.2266C101.562 14.2266 101.969 14.1797 102.344 14.0859C102.656 14.0078 102.953 13.8828 103.234 13.7109C103.531 13.5234 103.727 13.25 103.82 12.8906C104.133 12.9531 104.398 13.0078 104.617 13.0547C104.836 13.0859 105.023 13.1172 105.18 13.1484C105.352 13.1953 105.5 13.2266 105.625 13.2422C105.75 13.2734 105.898 13.3047 106.07 13.3359C106.227 13.3672 106.414 13.4062 106.633 13.4531C106.867 13.4844 107.141 13.5312 107.453 13.5938C107.219 13.5625 106.977 13.5859 106.727 13.6641C106.492 13.7422 106.266 13.8281 106.047 13.9219C105.797 14.0312 105.562 14.1641 105.344 14.3203C105.203 14.4141 105.039 14.5547 104.852 14.7422C104.68 14.9297 104.43 15.1094 104.102 15.2812C103.773 15.4531 103.336 15.6016 102.789 15.7266C102.258 15.8359 101.57 15.875 100.727 15.8438C99.7109 15.8125 98.8594 15.6328 98.1719 15.3047C97.4844 14.9609 96.9297 14.5469 96.5078 14.0625C96.0859 13.5625 95.7812 13.0234 95.5938 12.4453C95.4062 11.8672 95.3047 11.3281 95.2891 10.8281C95.2734 10.3281 95.4219 9.80469 95.7344 9.25781C96.0469 8.71094 96.4844 8.21094 97.0469 7.75781C97.625 7.30469 98.3203 6.9375 99.1328 6.65625C99.9453 6.35938 100.836 6.21094 101.805 6.21094C102.367 6.21094 102.883 6.28125 103.352 6.42188C103.836 6.54688 104.273 6.71875 104.664 6.9375C105.07 7.15625 105.422 7.40625 105.719 7.6875C106.016 7.95312 106.266 8.22656 106.469 8.50781C106.672 8.80469 106.844 9.11719 106.984 9.44531C107.109 9.72656 107.211 10.0469 107.289 10.4062C107.367 10.7656 107.391 11.1328 107.359 11.5078C106.172 11.5391 105.211 11.5625 104.477 11.5781C103.758 11.5938 103.195 11.6016 102.789 11.6016H101.734H100.938C100.656 11.6016 100.289 11.6094 99.8359 11.625C99.3828 11.6406 98.8281 11.6641 98.1719 11.6953C98.25 12.3203 98.4453 12.8047 98.7578 13.1484C99.0859 13.4766 99.4297 13.7266 99.7891 13.8984C100.195 14.0859 100.641 14.1953 101.125 14.2266ZM99.0156 10.0078C99.5156 10.0391 99.9297 10.0625 100.258 10.0781C100.602 10.0938 100.883 10.1094 101.102 10.125C101.336 10.1406 101.523 10.1484 101.664 10.1484H102.25C102.641 10.1484 103.367 10.125 104.43 10.0781C104.383 9.39062 104.234 8.86719 103.984 8.50781C103.75 8.14844 103.5 7.88281 103.234 7.71094C102.922 7.52344 102.578 7.41406 102.203 7.38281C101.188 7.39844 100.43 7.60938 99.9297 8.01562C99.4453 8.42188 99.1406 9.08594 99.0156 10.0078ZM119.43 2.13281C120.211 2.17969 120.867 2.21875 121.398 2.25C121.945 2.26562 122.398 2.28125 122.758 2.29688C123.164 2.3125 123.508 2.3125 123.789 2.29688C124.07 2.28125 124.453 2.24219 124.938 2.17969C125.344 2.13281 125.883 2.0625 126.555 1.96875C127.242 1.85938 128.094 1.71875 129.109 1.54688C128.75 1.90625 128.469 2.23438 128.266 2.53125C128.078 2.8125 127.93 3.05469 127.82 3.25781C127.695 3.50781 127.609 3.71875 127.562 3.89062C127.531 4.04688 127.562 4.4375 127.656 5.0625C127.75 5.6875 127.883 6.42969 128.055 7.28906C128.227 8.13281 128.414 9.03906 128.617 10.0078C128.82 10.9609 129.023 11.8594 129.227 12.7031C129.43 13.5312 129.609 14.2422 129.766 14.8359C129.938 15.4141 130.062 15.7578 130.141 15.8672C130.375 16.1953 130.523 16.4141 130.586 16.5234C130.648 16.6172 130.758 16.7031 130.914 16.7812C130.977 16.8125 131.078 16.8594 131.219 16.9219C131.344 16.9844 131.508 17.0625 131.711 17.1562C131.93 17.25 132.203 17.3594 132.531 17.4844C131.922 17.5156 131.398 17.5391 130.961 17.5547C130.523 17.5547 130.164 17.5625 129.883 17.5781C129.555 17.5938 129.273 17.6094 129.039 17.625C128.805 17.625 128.523 17.6406 128.195 17.6719C127.914 17.7031 127.547 17.7344 127.094 17.7656C126.656 17.7969 126.141 17.8281 125.547 17.8594C125.859 17.6406 126.109 17.4453 126.297 17.2734C126.5 17.0859 126.656 16.9297 126.766 16.8047C126.891 16.6484 126.977 16.5078 127.023 16.3828C127.055 16.2422 127.078 16.0312 127.094 15.75C127.109 15.5 127.109 15.1719 127.094 14.7656C127.078 14.3438 127.039 13.7969 126.977 13.125L120.812 13.7578C120.656 14.0234 120.539 14.2578 120.461 14.4609C120.383 14.6484 120.328 14.8125 120.297 14.9531C120.25 15.125 120.234 15.2656 120.25 15.375C120.281 15.5 120.336 15.6484 120.414 15.8203C120.492 15.9766 120.602 16.1641 120.742 16.3828C120.898 16.5859 121.125 16.8281 121.422 17.1094C121.031 17.0938 120.633 17.0859 120.227 17.0859C119.82 17.0859 119.445 17.0938 119.102 17.1094C118.695 17.125 118.297 17.1406 117.906 17.1562C117.516 17.1719 117.07 17.1953 116.57 17.2266C116.148 17.2578 115.656 17.2969 115.094 17.3438C114.516 17.375 113.898 17.4219 113.242 17.4844C113.648 17.2969 113.992 17.1094 114.273 16.9219C114.555 16.7188 114.789 16.5312 114.977 16.3594C115.195 16.1719 115.383 15.9922 115.539 15.8203C115.648 15.6641 115.867 15.3047 116.195 14.7422C116.523 14.1641 116.891 13.4844 117.297 12.7031C117.719 11.9219 118.156 11.0859 118.609 10.1953C119.078 9.30469 119.5 8.46875 119.875 7.6875C120.25 6.89062 120.555 6.20312 120.789 5.625C121.023 5.04688 121.141 4.67188 121.141 4.5C121.109 4.29688 121.031 4.07031 120.906 3.82031C120.797 3.60156 120.625 3.35156 120.391 3.07031C120.172 2.78906 119.852 2.47656 119.43 2.13281ZM126.695 11.3906C126.602 10.8438 126.516 10.375 126.438 9.98438C126.359 9.57812 126.297 9.24219 126.25 8.97656C126.188 8.66406 126.141 8.39062 126.109 8.15625C126.062 7.9375 126.008 7.65625 125.945 7.3125C125.883 7.01562 125.805 6.64844 125.711 6.21094C125.633 5.75781 125.531 5.21875 125.406 4.59375C124.516 6.375 123.82 7.75781 123.32 8.74219C122.836 9.71094 122.484 10.4219 122.266 10.875C122 11.4062 121.852 11.7188 121.82 11.8125L126.695 11.3906ZM132.203 18.6562C132.359 18.4219 132.484 18.2031 132.578 18C132.672 17.7969 132.75 17.625 132.812 17.4844C132.875 17.3125 132.922 17.1562 132.953 17.0156C132.969 16.9219 132.977 16.6484 132.977 16.1953C132.977 15.7422 132.961 15.1719 132.93 14.4844C132.914 13.7969 132.891 13.0234 132.859 12.1641C132.844 11.3047 132.812 10.4297 132.766 9.53906C132.734 8.64844 132.695 7.78125 132.648 6.9375C132.617 6.09375 132.586 5.33594 132.555 4.66406C132.523 3.97656 132.492 3.41406 132.461 2.97656C132.43 2.53906 132.406 2.28906 132.391 2.22656C132.359 2.13281 132.305 2.03906 132.227 1.94531C132.07 1.75781 131.805 1.57812 131.43 1.40625C132.227 1.20312 132.836 1.03906 133.258 0.914062C133.508 0.851562 133.727 0.789062 133.914 0.726562C134.086 0.664062 134.258 0.601562 134.43 0.539062C134.57 0.476562 134.727 0.40625 134.898 0.328125C135.07 0.234375 135.227 0.132812 135.367 0.0234375C135.289 0.476562 135.227 0.914062 135.18 1.33594C135.133 1.75781 135.094 2.14844 135.062 2.50781C135.031 2.91406 135.016 3.30469 135.016 3.67969C134.938 4.44531 134.891 5.28125 134.875 6.1875C134.875 7.07812 134.883 7.98438 134.898 8.90625C134.914 9.82812 134.945 10.7266 134.992 11.6016C135.039 12.4766 135.086 13.2734 135.133 13.9922C135.195 14.6953 135.25 15.2969 135.297 15.7969C135.359 16.2812 135.406 16.5938 135.438 16.7344C135.5 16.9688 135.562 17.1953 135.625 17.4141C135.688 17.6016 135.758 17.7969 135.836 18C135.914 18.2188 136.008 18.3906 136.117 18.5156H133.844C133.641 18.5156 133.445 18.5234 133.258 18.5391C133.086 18.5547 132.906 18.5703 132.719 18.5859C132.531 18.6016 132.359 18.625 132.203 18.6562ZM137.078 7.21875C137.484 7.29688 137.836 7.35938 138.133 7.40625C138.445 7.4375 138.711 7.46875 138.93 7.5C139.18 7.53125 139.398 7.55469 139.586 7.57031C139.773 7.58594 139.992 7.60156 140.242 7.61719C140.664 7.63281 141.258 7.63281 142.023 7.61719C141.57 7.58594 141.211 7.70312 140.945 7.96875C140.695 8.21875 140.508 8.50781 140.383 8.83594C140.227 9.22656 140.141 9.67969 140.125 10.1953C140.094 10.8828 140.109 11.5078 140.172 12.0703C140.25 12.6172 140.383 13.0859 140.57 13.4766C140.773 13.8516 141.039 14.1328 141.367 14.3203C141.695 14.4922 142.117 14.5391 142.633 14.4609C143.148 14.3828 143.539 14.2031 143.805 13.9219C144.086 13.625 144.289 13.2656 144.414 12.8438C144.539 12.4062 144.609 11.9141 144.625 11.3672C144.656 10.8203 144.68 10.25 144.695 9.65625C144.695 9.0625 144.688 8.64062 144.672 8.39062C144.672 8.125 144.664 7.95312 144.648 7.875C144.633 7.79688 144.609 7.76562 144.578 7.78125C144.547 7.78125 144.508 7.74219 144.461 7.66406C144.43 7.60156 144.383 7.53906 144.32 7.47656C144.273 7.41406 144.211 7.34375 144.133 7.26562C144.055 7.17188 143.969 7.07812 143.875 6.98438C144.281 7 144.641 7.01562 144.953 7.03125C145.281 7.03125 145.555 7.03906 145.773 7.05469C146.023 7.07031 146.242 7.08594 146.43 7.10156C146.602 7.11719 146.828 7.14062 147.109 7.17188C147.344 7.20312 147.648 7.23438 148.023 7.26562C148.398 7.29688 148.844 7.34375 149.359 7.40625C149 7.48438 148.711 7.60156 148.492 7.75781C148.273 7.91406 148.102 8.07031 147.977 8.22656C147.836 8.39844 147.734 8.58594 147.672 8.78906C147.625 9.05469 147.625 9.46094 147.672 10.0078C147.703 10.4922 147.781 11.1562 147.906 12C148.031 12.8438 148.227 13.9531 148.492 15.3281L146.641 16.4297L146.266 13.3125C145.812 14.0781 145.328 14.6719 144.812 15.0938C144.312 15.5 143.844 15.7969 143.406 15.9844C142.891 16.2031 142.391 16.3281 141.906 16.3594C141.266 16.3594 140.711 16.3203 140.242 16.2422C139.789 16.1484 139.398 16.0312 139.07 15.8906C138.742 15.75 138.477 15.5938 138.273 15.4219C138.086 15.2344 137.945 15.0469 137.852 14.8594C137.633 14.4688 137.516 13.9688 137.5 13.3594C137.484 12.7344 137.508 12.1172 137.57 11.5078C137.633 10.8828 137.703 10.3125 137.781 9.79688C137.859 9.28125 137.883 8.92969 137.852 8.74219C137.82 8.60156 137.773 8.44531 137.711 8.27344C137.648 8.13281 137.57 7.97656 137.477 7.80469C137.383 7.61719 137.25 7.42188 137.078 7.21875ZM149.477 6.77344C149.773 6.78906 150.039 6.79688 150.273 6.79688C150.523 6.78125 150.734 6.76562 150.906 6.75C151.109 6.73438 151.289 6.71875 151.445 6.70312C151.68 6.67188 151.922 6.63281 152.172 6.58594C152.391 6.55469 152.617 6.51562 152.852 6.46875C153.102 6.40625 153.344 6.33594 153.578 6.25781C153.484 6.49219 153.406 6.69531 153.344 6.86719C153.281 7.03906 153.234 7.1875 153.203 7.3125C153.156 7.45312 153.133 7.57031 153.133 7.66406C153.117 7.77344 153.109 7.90625 153.109 8.0625C153.094 8.32812 153.094 8.75781 153.109 9.35156C153.922 8.64844 154.602 8.10156 155.148 7.71094C155.711 7.32031 156.156 7.01562 156.484 6.79688C156.875 6.54688 157.18 6.38281 157.398 6.30469C157.977 6.21094 158.484 6.34375 158.922 6.70312C159.109 6.85938 159.289 7.07031 159.461 7.33594C159.633 7.58594 159.781 7.92188 159.906 8.34375C160.031 8.76562 160.125 9.27344 160.188 9.86719C160.25 10.4453 160.258 11.1406 160.211 11.9531C159.883 11.9844 159.586 12.0156 159.32 12.0469C159.07 12.0781 158.859 12.1016 158.688 12.1172C158.484 12.1484 158.297 12.1641 158.125 12.1641L157.492 12.2344C157.273 12.2656 157 12.2969 156.672 12.3281C156.359 12.3438 155.977 12.375 155.523 12.4219C156.18 11.8906 156.602 11.4297 156.789 11.0391C156.992 10.6328 157.078 10.2969 157.047 10.0312C157.016 9.73438 156.875 9.47656 156.625 9.25781C156.328 9.08594 156.008 9.02344 155.664 9.07031C155.367 9.10156 155.023 9.23438 154.633 9.46875C154.242 9.70312 153.828 10.1406 153.391 10.7812C153.422 11.7812 153.453 12.6094 153.484 13.2656C153.531 13.9219 153.57 14.4531 153.602 14.8594C153.648 15.3281 153.688 15.6953 153.719 15.9609C153.766 16.1953 153.859 16.4453 154 16.7109C154.109 16.9297 154.266 17.1719 154.469 17.4375C154.672 17.7031 154.938 17.9688 155.266 18.2344C154.578 18.2031 154.016 18.2031 153.578 18.2344C153.312 18.25 153.078 18.2656 152.875 18.2812C152.656 18.3125 152.422 18.3438 152.172 18.375C151.953 18.4062 151.695 18.4375 151.398 18.4688C151.117 18.5156 150.805 18.5625 150.461 18.6094C150.586 18.4375 150.688 18.2344 150.766 18C150.844 17.7812 150.906 17.5703 150.953 17.3672C151.016 17.1328 151.062 16.8906 151.094 16.6406C151.109 16.4219 151.117 16.0938 151.117 15.6562C151.133 15.2188 151.125 14.7266 151.094 14.1797C151.078 13.6172 151.055 13.0391 151.023 12.4453C150.992 11.8359 150.953 11.2656 150.906 10.7344C150.859 10.2031 150.805 9.74219 150.742 9.35156C150.695 8.94531 150.641 8.66406 150.578 8.50781C150.5 8.32031 150.406 8.13281 150.297 7.94531C150.203 7.77344 150.086 7.59375 149.945 7.40625C149.805 7.20312 149.648 6.99219 149.477 6.77344ZM162.953 8.50781C163.031 8.41406 163.078 8.24219 163.094 7.99219C163.125 7.72656 163.188 7.42969 163.281 7.10156C163.391 6.77344 163.57 6.42969 163.82 6.07031C164.07 5.71094 164.477 5.375 165.039 5.0625C165.586 4.75 166.117 4.5625 166.633 4.5C167.148 4.4375 167.641 4.46094 168.109 4.57031C168.578 4.67969 169.016 4.85156 169.422 5.08594C169.844 5.32031 170.227 5.57812 170.57 5.85938C170.805 6.04688 170.992 6.32031 171.133 6.67969C171.273 7.02344 171.383 7.41406 171.461 7.85156C171.539 8.28906 171.594 8.75 171.625 9.23438C171.672 9.70312 171.703 10.1641 171.719 10.6172C171.734 11.0547 171.742 11.4609 171.742 11.8359C171.758 12.1953 171.789 12.4922 171.836 12.7266C171.898 13.0703 172.008 13.3672 172.164 13.6172C172.32 13.8516 172.492 14.0547 172.68 14.2266C172.867 14.3828 173.055 14.5078 173.242 14.6016C173.43 14.6953 173.594 14.7656 173.734 14.8125C173.828 14.8594 173.914 14.8906 173.992 14.9062C174.148 14.9688 174.258 14.9688 174.32 14.9062C174.227 15.125 174.141 15.3125 174.062 15.4688C173.984 15.625 173.922 15.7578 173.875 15.8672C173.812 15.9922 173.758 16.0938 173.711 16.1719C173.664 16.2656 173.609 16.3516 173.547 16.4297C173.5 16.5078 173.438 16.5938 173.359 16.6875C173.281 16.7812 173.203 16.8828 173.125 16.9922C172.922 16.9141 172.727 16.8203 172.539 16.7109C172.367 16.6016 172.211 16.5 172.07 16.4062C171.898 16.2969 171.742 16.1875 171.602 16.0781C171.461 15.9688 171.328 15.8438 171.203 15.7031C171.094 15.5781 170.977 15.4453 170.852 15.3047C170.742 15.1641 170.648 15.0078 170.57 14.8359C170.477 15.0391 170.25 15.3281 169.891 15.7031C169.547 16.0781 169.094 16.4219 168.531 16.7344C167.969 17.0312 167.312 17.2422 166.562 17.3672C165.828 17.4922 165.016 17.4062 164.125 17.1094C163.734 16.9844 163.367 16.8047 163.023 16.5703C162.68 16.3203 162.383 16.0234 162.133 15.6797C161.898 15.3359 161.727 14.9453 161.617 14.5078C161.523 14.0547 161.531 13.5547 161.641 13.0078C161.75 12.4609 161.945 12 162.227 11.625C162.508 11.25 162.844 10.9453 163.234 10.7109C163.625 10.4766 164.062 10.2969 164.547 10.1719C165.031 10.0469 165.531 9.96094 166.047 9.91406C166.453 9.89844 166.859 9.92188 167.266 9.98438C167.609 10.0469 167.969 10.1641 168.344 10.3359C168.719 10.4922 169.039 10.7344 169.305 11.0625C169.289 10.2344 169.258 9.57812 169.211 9.09375C169.18 8.59375 169.148 8.21094 169.117 7.94531C169.055 7.63281 169 7.41406 168.953 7.28906C168.875 7.17969 168.789 7.05469 168.695 6.91406C168.617 6.77344 168.516 6.64844 168.391 6.53906C168.266 6.41406 168.109 6.3125 167.922 6.23438C167.734 6.15625 167.516 6.125 167.266 6.14062C167 6.15625 166.789 6.22656 166.633 6.35156C166.477 6.47656 166.352 6.625 166.258 6.79688C166.18 6.95312 166.133 7.125 166.117 7.3125C166.102 7.5 166.109 7.66406 166.141 7.80469C166.172 7.89844 166.219 8 166.281 8.10938C166.344 8.20312 166.43 8.30469 166.539 8.41406C166.648 8.52344 166.797 8.61719 166.984 8.69531C166.625 8.74219 166.305 8.78125 166.023 8.8125C165.742 8.82812 165.5 8.85156 165.297 8.88281C165.062 8.91406 164.859 8.9375 164.688 8.95312C164.516 8.96875 164.312 9 164.078 9.04688C163.875 9.07812 163.625 9.11719 163.328 9.16406C163.031 9.21094 162.688 9.27344 162.297 9.35156C162.391 9.24219 162.477 9.14062 162.555 9.04688C162.633 8.9375 162.703 8.84375 162.766 8.76562C162.828 8.67188 162.891 8.58594 162.953 8.50781ZM166.469 11.2969C166.188 11.3125 165.906 11.3828 165.625 11.5078C165.344 11.6172 165.094 11.7812 164.875 12C164.656 12.2031 164.469 12.4453 164.312 12.7266C164.172 12.9922 164.102 13.2891 164.102 13.6172C164.102 13.9453 164.18 14.2344 164.336 14.4844C164.508 14.7188 164.727 14.9141 164.992 15.0703C165.273 15.2266 165.57 15.3203 165.883 15.3516C166.211 15.3828 166.531 15.3516 166.844 15.2578C167.141 15.1484 167.422 14.9766 167.688 14.7422C167.953 14.4922 168.18 14.2266 168.367 13.9453C168.555 13.6484 168.688 13.3594 168.766 13.0781C168.844 12.7812 168.852 12.5391 168.789 12.3516C168.664 11.9453 168.383 11.6641 167.945 11.5078C167.508 11.3359 167.016 11.2656 166.469 11.2969ZM186.367 4.96875L189.086 4.85156C188.961 5.22656 188.859 5.57031 188.781 5.88281C188.719 6.17969 188.672 6.4375 188.641 6.65625C188.594 6.92188 188.57 7.15625 188.57 7.35938V8.03906C188.57 8.25781 188.562 8.5 188.547 8.76562C188.531 9.03125 188.516 9.32031 188.5 9.63281C189.062 9.61719 189.539 9.60156 189.93 9.58594C190.336 9.57031 190.672 9.5625 190.938 9.5625H191.688C191.875 9.5625 192.062 9.55469 192.25 9.53906C192.422 9.52344 192.602 9.50781 192.789 9.49219C192.992 9.46094 193.188 9.41406 193.375 9.35156L193.469 11.3438C193.125 11.3125 192.812 11.2969 192.531 11.2969C192.266 11.2969 192.031 11.2891 191.828 11.2734C191.594 11.2734 191.383 11.2656 191.195 11.25H190.492C190.258 11.25 189.969 11.2578 189.625 11.2734C189.297 11.2891 188.906 11.3047 188.453 11.3203C188.422 11.5859 188.398 11.8359 188.383 12.0703C188.383 12.3047 188.391 12.5156 188.406 12.7031C188.406 12.9219 188.422 13.125 188.453 13.3125C188.469 13.5156 188.5 13.75 188.547 14.0156C188.578 14.25 188.617 14.5312 188.664 14.8594C188.727 15.1875 188.797 15.5781 188.875 16.0312H186.32C186.383 15.6094 186.43 15.2344 186.461 14.9062C186.508 14.5625 186.547 14.2812 186.578 14.0625C186.609 13.7969 186.633 13.5625 186.648 13.3594C186.664 13.1094 186.68 12.8594 186.695 12.6094C186.711 12.3906 186.719 12.1641 186.719 11.9297C186.719 11.6797 186.711 11.4453 186.695 11.2266C186.305 11.2109 185.953 11.2109 185.641 11.2266C185.344 11.2266 185.086 11.2344 184.867 11.25C184.617 11.2656 184.398 11.2812 184.211 11.2969C184.023 11.3281 183.812 11.3516 183.578 11.3672C183.375 11.3984 183.133 11.4219 182.852 11.4375C182.57 11.4375 182.266 11.4531 181.938 11.4844L181.773 9.5625C182.195 9.59375 182.562 9.61719 182.875 9.63281C183.203 9.64844 183.477 9.65625 183.695 9.65625H184.328H185.031H186.883C186.883 9.25 186.875 8.89844 186.859 8.60156C186.859 8.28906 186.852 8.03125 186.836 7.82812C186.82 7.59375 186.805 7.40625 186.789 7.26562C186.773 7.10938 186.742 6.92188 186.695 6.70312C186.664 6.51562 186.617 6.28125 186.555 6C186.508 5.70312 186.445 5.35938 186.367 4.96875ZM210.32 0.328125C211.164 0.359375 212.016 0.515625 212.875 0.796875C213.75 1.0625 214.555 1.5 215.289 2.10938C216.023 2.70312 216.648 3.47656 217.164 4.42969C217.68 5.36719 218 6.51562 218.125 7.875C218.234 8.98438 218.094 10.0859 217.703 11.1797C217.328 12.2578 216.805 13.25 216.133 14.1562C215.461 15.0625 214.688 15.8359 213.812 16.4766C212.938 17.1016 212.062 17.5156 211.188 17.7188C210.656 17.8438 210.07 17.8594 209.43 17.7656C208.805 17.6562 208.164 17.4609 207.508 17.1797C206.867 16.8828 206.234 16.5078 205.609 16.0547C205 15.6016 204.445 15.0859 203.945 14.5078C203.445 13.9141 203.023 13.2734 202.68 12.5859C202.352 11.8984 202.148 11.1797 202.07 10.4297C201.992 9.80469 201.984 9.11719 202.047 8.36719C202.125 7.60156 202.273 6.84375 202.492 6.09375C202.727 5.32812 203.047 4.59375 203.453 3.89062C203.875 3.17188 204.406 2.54688 205.047 2.01562C205.688 1.46875 206.438 1.04688 207.297 0.75C208.172 0.4375 209.18 0.296875 210.32 0.328125ZM206.125 9.82031C205.906 11.4922 206.062 12.8359 206.594 13.8516C207.141 14.8672 207.961 15.4844 209.055 15.7031C209.586 15.8125 210.094 15.7031 210.578 15.375C211.078 15.0312 211.531 14.5391 211.938 13.8984C212.344 13.2578 212.695 12.5078 212.992 11.6484C213.289 10.7891 213.508 9.89062 213.648 8.95312C213.789 8.01562 213.797 7.17188 213.672 6.42188C213.562 5.65625 213.367 5.00781 213.086 4.47656C212.805 3.92969 212.461 3.50781 212.055 3.21094C211.664 2.91406 211.258 2.75 210.836 2.71875C210.102 2.67188 209.461 2.86719 208.914 3.30469C208.367 3.72656 207.906 4.28125 207.531 4.96875C207.156 5.65625 206.852 6.42969 206.617 7.28906C206.398 8.14844 206.234 8.99219 206.125 9.82031ZM218.289 1.38281C218.992 1.50781 219.57 1.59375 220.023 1.64062C220.477 1.6875 220.844 1.72656 221.125 1.75781C221.453 1.78906 221.711 1.79688 221.898 1.78125H222.602C222.852 1.78125 223.164 1.78125 223.539 1.78125C223.93 1.76562 224.414 1.75781 224.992 1.75781C225.32 2.52344 225.617 3.22656 225.883 3.86719C226.164 4.50781 226.398 5.05469 226.586 5.50781C226.805 6.05469 227.008 6.54688 227.195 6.98438C227.414 7.53125 227.648 8.13281 227.898 8.78906C228.148 9.44531 228.375 10.0625 228.578 10.6406C228.797 11.2188 228.977 11.6953 229.117 12.0703C229.258 12.4453 229.328 12.6172 229.328 12.5859C229.328 12.5703 229.336 12.4141 229.352 12.1172C229.367 11.8047 229.383 11.4219 229.398 10.9688C229.414 10.5 229.43 9.99219 229.445 9.44531C229.477 8.88281 229.492 8.34375 229.492 7.82812C229.508 7.29688 229.516 6.8125 229.516 6.375C229.516 5.9375 229.5 5.60938 229.469 5.39062C229.422 5.125 229.328 4.82031 229.188 4.47656C229.062 4.17969 228.891 3.82812 228.672 3.42188C228.453 3 228.148 2.52344 227.758 1.99219C228.398 2.00781 228.922 2.01562 229.328 2.01562C229.734 2.01562 230.062 2.01562 230.312 2.01562C230.594 2.01562 230.812 2.00781 230.969 1.99219C231.172 1.99219 231.422 1.97656 231.719 1.94531C231.984 1.91406 232.312 1.89062 232.703 1.875C233.109 1.84375 233.609 1.80469 234.203 1.75781C233.859 2.07031 233.586 2.36719 233.383 2.64844C233.18 2.92969 233.016 3.17969 232.891 3.39844C232.75 3.64844 232.656 3.88281 232.609 4.10156C232.547 4.38281 232.492 4.84375 232.445 5.48438C232.414 6.10938 232.375 6.8125 232.328 7.59375C232.297 8.375 232.266 9.1875 232.234 10.0312C232.203 10.875 232.172 11.6484 232.141 12.3516C232.141 12.8828 232.125 13.4531 232.094 14.0625C232.062 14.5781 232.031 15.1641 232 15.8203C231.969 16.4609 231.93 17.1094 231.883 17.7656L229.797 17.8125C229.188 16.7344 228.672 15.8125 228.25 15.0469C227.844 14.2656 227.508 13.625 227.242 13.125C226.945 12.5469 226.695 12.0625 226.492 11.6719C226.32 11.2969 226.094 10.8672 225.812 10.3828C225.578 9.97656 225.281 9.47656 224.922 8.88281C224.578 8.28906 224.164 7.60938 223.68 6.84375C223.633 7.92188 223.609 8.84375 223.609 9.60938C223.625 10.3594 223.648 10.9844 223.68 11.4844C223.727 12.0625 223.781 12.5469 223.844 12.9375C223.922 13.3125 224.031 13.7344 224.172 14.2031C224.297 14.6094 224.445 15.0859 224.617 15.6328C224.805 16.1797 225.031 16.7969 225.297 17.4844C224.375 17.4375 223.688 17.4141 223.234 17.4141H222.531C222.312 17.4141 222.016 17.4375 221.641 17.4844C221.328 17.5156 220.898 17.5625 220.352 17.625C219.82 17.6875 219.156 17.7734 218.359 17.8828C218.734 17.4297 219.031 17.0156 219.25 16.6406C219.484 16.25 219.664 15.9219 219.789 15.6562C219.945 15.3438 220.055 15.0703 220.117 14.8359C220.164 14.5859 220.195 14.1562 220.211 13.5469C220.227 12.9219 220.227 12.2188 220.211 11.4375C220.211 10.6406 220.195 9.80469 220.164 8.92969C220.148 8.05469 220.125 7.24219 220.094 6.49219C220.062 5.74219 220.023 5.10156 219.977 4.57031C219.945 4.03906 219.922 3.71094 219.906 3.58594C219.859 3.38281 219.766 3.16406 219.625 2.92969C219.5 2.72656 219.336 2.5 219.133 2.25C218.93 1.98438 218.648 1.69531 218.289 1.38281ZM232.891 1.99219C233.984 2.02344 234.891 2.04688 235.609 2.0625C236.344 2.0625 236.938 2.0625 237.391 2.0625H238.633H245.617C245.648 2.375 245.672 2.67969 245.688 2.97656C245.719 3.25781 245.734 3.50781 245.734 3.72656C245.734 3.99219 245.727 4.23438 245.711 4.45312C245.695 4.67188 245.672 4.90625 245.641 5.15625C245.609 5.375 245.578 5.60938 245.547 5.85938C245.516 6.10938 245.461 6.36719 245.383 6.63281C245.164 5.78906 244.867 5.14844 244.492 4.71094C244.133 4.27344 243.766 3.95312 243.391 3.75C242.953 3.51562 242.492 3.39062 242.008 3.375C241.367 3.40625 240.867 3.46094 240.508 3.53906C240.148 3.61719 239.867 3.72656 239.664 3.86719C239.461 4.00781 239.305 4.17188 239.195 4.35938C239.102 4.53125 239 4.72656 238.891 4.94531C238.797 5.13281 238.711 5.42188 238.633 5.8125C238.555 6.14062 238.477 6.58594 238.398 7.14844C238.336 7.71094 238.266 8.4375 238.188 9.32812C238.609 9.20312 238.945 9.08594 239.195 8.97656C239.461 8.86719 239.672 8.77344 239.828 8.69531C240 8.60156 240.125 8.51562 240.203 8.4375C240.266 8.34375 240.359 8.17188 240.484 7.92188C240.578 7.70312 240.703 7.40625 240.859 7.03125C241.031 6.65625 241.234 6.14062 241.469 5.48438C241.5 6.20312 241.516 6.80469 241.516 7.28906C241.516 7.75781 241.523 8.14062 241.539 8.4375C241.539 8.78125 241.547 9.05469 241.562 9.25781V10.1484C241.562 10.4766 241.562 10.9219 241.562 11.4844C241.578 12.0312 241.602 12.7266 241.633 13.5703C241.445 12.9922 241.273 12.5391 241.117 12.2109C240.977 11.8672 240.852 11.6094 240.742 11.4375C240.617 11.2344 240.508 11.0938 240.414 11.0156C240.305 10.9844 240.156 10.9531 239.969 10.9219C239.797 10.9062 239.578 10.8984 239.312 10.8984C239.062 10.8984 238.742 10.9375 238.352 11.0156C238.305 11.875 238.297 12.5703 238.328 13.1016C238.375 13.6172 238.438 14.0156 238.516 14.2969C238.594 14.625 238.688 14.8594 238.797 15C238.938 15.1406 239.219 15.2578 239.641 15.3516C240.062 15.4297 240.539 15.4609 241.07 15.4453C241.617 15.4141 242.172 15.3203 242.734 15.1641C243.297 15.0078 243.797 14.75 244.234 14.3906C244.562 14.0938 244.914 13.7188 245.289 13.2656C245.602 12.875 245.945 12.3828 246.32 11.7891C246.711 11.1953 247.094 10.4766 247.469 9.63281C247.406 10.3359 247.359 10.9219 247.328 11.3906C247.312 11.8438 247.289 12.2109 247.258 12.4922C247.227 12.8203 247.203 13.0703 247.188 13.2422C247.188 13.4297 247.164 13.6953 247.117 14.0391C247.086 14.3359 247.031 14.7422 246.953 15.2578C246.891 15.7578 246.805 16.3984 246.695 17.1797C245.961 17.1953 245.266 17.2109 244.609 17.2266C243.953 17.2266 243.375 17.2344 242.875 17.25C242.281 17.2656 241.734 17.2812 241.234 17.2969C240.719 17.2969 240.148 17.3203 239.523 17.3672C238.977 17.3984 238.328 17.4453 237.578 17.5078C236.844 17.5703 236.031 17.6562 235.141 17.7656C235.219 16.7031 235.273 15.7031 235.305 14.7656C235.352 13.8125 235.383 12.9766 235.398 12.2578C235.414 11.4141 235.414 10.6328 235.398 9.91406C235.477 8.11719 235.445 6.66406 235.305 5.55469C235.164 4.44531 235 3.73438 234.812 3.42188C234.719 3.3125 234.586 3.17969 234.414 3.02344C234.273 2.89844 234.078 2.75 233.828 2.57812C233.578 2.40625 233.266 2.21094 232.891 1.99219ZM260.828 4.96875L263.547 4.85156C263.422 5.22656 263.32 5.57031 263.242 5.88281C263.18 6.17969 263.133 6.4375 263.102 6.65625C263.055 6.92188 263.031 7.15625 263.031 7.35938V8.03906C263.031 8.25781 263.023 8.5 263.008 8.76562C262.992 9.03125 262.977 9.32031 262.961 9.63281C263.523 9.61719 264 9.60156 264.391 9.58594C264.797 9.57031 265.133 9.5625 265.398 9.5625H266.148C266.336 9.5625 266.523 9.55469 266.711 9.53906C266.883 9.52344 267.062 9.50781 267.25 9.49219C267.453 9.46094 267.648 9.41406 267.836 9.35156L267.93 11.3438C267.586 11.3125 267.273 11.2969 266.992 11.2969C266.727 11.2969 266.492 11.2891 266.289 11.2734C266.055 11.2734 265.844 11.2656 265.656 11.25H264.953C264.719 11.25 264.43 11.2578 264.086 11.2734C263.758 11.2891 263.367 11.3047 262.914 11.3203C262.883 11.5859 262.859 11.8359 262.844 12.0703C262.844 12.3047 262.852 12.5156 262.867 12.7031C262.867 12.9219 262.883 13.125 262.914 13.3125C262.93 13.5156 262.961 13.75 263.008 14.0156C263.039 14.25 263.078 14.5312 263.125 14.8594C263.188 15.1875 263.258 15.5781 263.336 16.0312H260.781C260.844 15.6094 260.891 15.2344 260.922 14.9062C260.969 14.5625 261.008 14.2812 261.039 14.0625C261.07 13.7969 261.094 13.5625 261.109 13.3594C261.125 13.1094 261.141 12.8594 261.156 12.6094C261.172 12.3906 261.18 12.1641 261.18 11.9297C261.18 11.6797 261.172 11.4453 261.156 11.2266C260.766 11.2109 260.414 11.2109 260.102 11.2266C259.805 11.2266 259.547 11.2344 259.328 11.25C259.078 11.2656 258.859 11.2812 258.672 11.2969C258.484 11.3281 258.273 11.3516 258.039 11.3672C257.836 11.3984 257.594 11.4219 257.312 11.4375C257.031 11.4375 256.727 11.4531 256.398 11.4844L256.234 9.5625C256.656 9.59375 257.023 9.61719 257.336 9.63281C257.664 9.64844 257.938 9.65625 258.156 9.65625H258.789H259.492H261.344C261.344 9.25 261.336 8.89844 261.32 8.60156C261.32 8.28906 261.312 8.03125 261.297 7.82812C261.281 7.59375 261.266 7.40625 261.25 7.26562C261.234 7.10938 261.203 6.92188 261.156 6.70312C261.125 6.51562 261.078 6.28125 261.016 6C260.969 5.70312 260.906 5.35938 260.828 4.96875ZM292.844 1.07812C293.844 1.0625 294.664 1.24219 295.305 1.61719C295.961 1.99219 296.492 2.4375 296.898 2.95312C297.305 3.46875 297.617 3.99219 297.836 4.52344C298.055 5.03906 298.227 5.44531 298.352 5.74219C298.383 5.82031 298.445 5.92188 298.539 6.04688C298.617 6.15625 298.727 6.28906 298.867 6.44531C299.023 6.58594 299.219 6.75 299.453 6.9375C298.969 6.95312 298.539 6.96875 298.164 6.98438C297.789 6.98438 297.469 6.99219 297.203 7.00781C296.906 7.02344 296.641 7.03906 296.406 7.05469C296.172 7.07031 295.883 7.09375 295.539 7.125C295.227 7.15625 294.844 7.1875 294.391 7.21875C293.938 7.25 293.383 7.29688 292.727 7.35938C293.117 6.89062 293.422 6.47656 293.641 6.11719C293.875 5.74219 294.047 5.41406 294.156 5.13281C294.281 4.83594 294.352 4.57812 294.367 4.35938C294.398 4.14062 294.391 3.95312 294.344 3.79688C294.25 3.4375 294.008 3.17969 293.617 3.02344C292.492 2.71094 291.508 2.96094 290.664 3.77344C289.836 4.57031 289.242 5.88281 288.883 7.71094C288.711 8.61719 288.547 9.5625 288.391 10.5469C288.25 11.5156 288.195 12.4062 288.227 13.2188C288.258 14.0156 288.414 14.6641 288.695 15.1641C288.977 15.6641 289.461 15.8984 290.148 15.8672C290.82 15.8359 291.391 15.7266 291.859 15.5391C292.328 15.3359 292.703 15.1016 292.984 14.8359C293.266 14.5547 293.461 14.2578 293.57 13.9453C293.695 13.6172 293.742 13.3125 293.711 13.0312C293.648 12.8125 293.484 12.5781 293.219 12.3281C292.984 12.1094 292.633 11.8672 292.164 11.6016C291.695 11.3203 291.023 11.0312 290.148 10.7344C290.977 10.6875 291.656 10.6562 292.188 10.6406C292.734 10.6094 293.164 10.5781 293.477 10.5469C293.852 10.5156 294.141 10.4922 294.344 10.4766C294.531 10.4609 294.805 10.4453 295.164 10.4297C295.477 10.4141 295.875 10.4062 296.359 10.4062C296.859 10.4062 297.484 10.3984 298.234 10.3828C297.953 10.6641 297.734 10.9219 297.578 11.1562C297.5 11.2812 297.43 11.3906 297.367 11.4844C297.305 11.6406 297.281 11.9609 297.297 12.4453C297.297 12.8516 297.328 13.4531 297.391 14.25C297.453 15.0312 297.57 16.1016 297.742 17.4609L294.625 17.8828L294.766 14.7188C294.406 15.5781 293.953 16.2188 293.406 16.6406C292.875 17.0625 292.367 17.3594 291.883 17.5312C291.305 17.7344 290.703 17.8281 290.078 17.8125C289.266 17.7344 288.453 17.5469 287.641 17.25C286.828 16.9531 286.109 16.5 285.484 15.8906C284.859 15.2656 284.375 14.4609 284.031 13.4766C283.703 12.4922 283.602 11.2734 283.727 9.82031C283.867 8.36719 284.211 7.10156 284.758 6.02344C285.32 4.92969 286.016 4.02344 286.844 3.30469C287.672 2.58594 288.602 2.04688 289.633 1.6875C290.68 1.3125 291.75 1.10938 292.844 1.07812ZM299.57 7.21875C299.977 7.29688 300.328 7.35938 300.625 7.40625C300.938 7.4375 301.203 7.46875 301.422 7.5C301.672 7.53125 301.891 7.55469 302.078 7.57031C302.266 7.58594 302.484 7.60156 302.734 7.61719C303.156 7.63281 303.75 7.63281 304.516 7.61719C304.062 7.58594 303.703 7.70312 303.438 7.96875C303.188 8.21875 303 8.50781 302.875 8.83594C302.719 9.22656 302.633 9.67969 302.617 10.1953C302.586 10.8828 302.602 11.5078 302.664 12.0703C302.742 12.6172 302.875 13.0859 303.062 13.4766C303.266 13.8516 303.531 14.1328 303.859 14.3203C304.188 14.4922 304.609 14.5391 305.125 14.4609C305.641 14.3828 306.031 14.2031 306.297 13.9219C306.578 13.625 306.781 13.2656 306.906 12.8438C307.031 12.4062 307.102 11.9141 307.117 11.3672C307.148 10.8203 307.172 10.25 307.188 9.65625C307.188 9.0625 307.18 8.64062 307.164 8.39062C307.164 8.125 307.156 7.95312 307.141 7.875C307.125 7.79688 307.102 7.76562 307.07 7.78125C307.039 7.78125 307 7.74219 306.953 7.66406C306.922 7.60156 306.875 7.53906 306.812 7.47656C306.766 7.41406 306.703 7.34375 306.625 7.26562C306.547 7.17188 306.461 7.07812 306.367 6.98438C306.773 7 307.133 7.01562 307.445 7.03125C307.773 7.03125 308.047 7.03906 308.266 7.05469C308.516 7.07031 308.734 7.08594 308.922 7.10156C309.094 7.11719 309.32 7.14062 309.602 7.17188C309.836 7.20312 310.141 7.23438 310.516 7.26562C310.891 7.29688 311.336 7.34375 311.852 7.40625C311.492 7.48438 311.203 7.60156 310.984 7.75781C310.766 7.91406 310.594 8.07031 310.469 8.22656C310.328 8.39844 310.227 8.58594 310.164 8.78906C310.117 9.05469 310.117 9.46094 310.164 10.0078C310.195 10.4922 310.273 11.1562 310.398 12C310.523 12.8438 310.719 13.9531 310.984 15.3281L309.133 16.4297L308.758 13.3125C308.305 14.0781 307.82 14.6719 307.305 15.0938C306.805 15.5 306.336 15.7969 305.898 15.9844C305.383 16.2031 304.883 16.3281 304.398 16.3594C303.758 16.3594 303.203 16.3203 302.734 16.2422C302.281 16.1484 301.891 16.0312 301.562 15.8906C301.234 15.75 300.969 15.5938 300.766 15.4219C300.578 15.2344 300.438 15.0469 300.344 14.8594C300.125 14.4688 300.008 13.9688 299.992 13.3594C299.977 12.7344 300 12.1172 300.062 11.5078C300.125 10.8828 300.195 10.3125 300.273 9.79688C300.352 9.28125 300.375 8.92969 300.344 8.74219C300.312 8.60156 300.266 8.44531 300.203 8.27344C300.141 8.13281 300.062 7.97656 299.969 7.80469C299.875 7.61719 299.742 7.42188 299.57 7.21875ZM312.203 7.52344L316.516 7.57031C316.266 8.52344 316.078 9.33594 315.953 10.0078C315.844 10.6797 315.773 11.2422 315.742 11.6953C315.68 12.2109 315.664 12.6484 315.695 13.0078C315.742 13.3359 315.82 13.6875 315.93 14.0625C316.023 14.375 316.164 14.7344 316.352 15.1406C316.539 15.5469 316.789 15.9531 317.102 16.3594C316.914 16.2969 316.711 16.25 316.492 16.2188C316.273 16.1875 316.07 16.1641 315.883 16.1484C315.664 16.1328 315.445 16.1328 315.227 16.1484C315.008 16.1641 314.766 16.1875 314.5 16.2188C314.281 16.25 314.016 16.2891 313.703 16.3359C313.391 16.3828 313.062 16.4453 312.719 16.5234C312.953 15.8203 313.133 15.2109 313.258 14.6953C313.398 14.1797 313.5 13.75 313.562 13.4062C313.625 13 313.664 12.6719 313.68 12.4219C313.68 12.1094 313.68 11.7578 313.68 11.3672C313.68 10.9609 313.68 10.5703 313.68 10.1953C313.68 9.82031 313.672 9.49219 313.656 9.21094C313.641 8.91406 313.609 8.72656 313.562 8.64844L313.328 8.41406C313.234 8.33594 313.094 8.22656 312.906 8.08594C312.734 7.92969 312.5 7.74219 312.203 7.52344ZM313.867 3.91406C314.195 3.74219 314.523 3.69531 314.852 3.77344C315.195 3.85156 315.461 4 315.648 4.21875C315.836 4.4375 315.898 4.69531 315.836 4.99219C315.789 5.28906 315.539 5.57812 315.086 5.85938C314.633 6.125 314.234 6.21875 313.891 6.14062C313.547 6.0625 313.305 5.89844 313.164 5.64844C313.023 5.39844 313 5.10938 313.094 4.78125C313.188 4.4375 313.445 4.14844 313.867 3.91406ZM317.477 1.19531C317.977 1.21094 318.414 1.21875 318.789 1.21875C319.164 1.20312 319.469 1.19531 319.703 1.19531H320.383C320.555 1.17969 320.766 1.17188 321.016 1.17188C321.234 1.17188 321.5 1.17188 321.812 1.17188C322.125 1.17188 322.484 1.17969 322.891 1.19531C323.016 1.63281 323.156 2.0625 323.312 2.48438C323.484 2.89062 323.633 3.25781 323.758 3.58594C323.914 3.97656 324.07 4.34375 324.227 4.6875C324.383 5.03125 324.57 5.44531 324.789 5.92969C324.977 6.33594 325.203 6.83594 325.469 7.42969C325.734 8.00781 326.047 8.67188 326.406 9.42188C326.578 8.9375 326.734 8.49219 326.875 8.08594C327.031 7.67969 327.164 7.32812 327.273 7.03125C327.398 6.6875 327.5 6.375 327.578 6.09375C327.656 5.8125 327.742 5.46875 327.836 5.0625C327.914 4.71875 328 4.30469 328.094 3.82031C328.203 3.33594 328.312 2.77344 328.422 2.13281C328.875 2.13281 329.281 2.13281 329.641 2.13281C330 2.13281 330.312 2.125 330.578 2.10938C330.875 2.10938 331.141 2.10156 331.375 2.08594C331.625 2.08594 331.961 2.07031 332.383 2.03906C332.742 2.00781 333.219 1.98438 333.812 1.96875C334.422 1.9375 335.172 1.89844 336.062 1.85156C335.734 2.08594 335.469 2.32031 335.266 2.55469C335.078 2.77344 334.93 2.96875 334.82 3.14062C334.695 3.34375 334.617 3.53906 334.586 3.72656C334.555 3.88281 334.523 4.24219 334.492 4.80469C334.477 5.36719 334.453 6.03906 334.422 6.82031C334.406 7.58594 334.391 8.40625 334.375 9.28125C334.375 10.1562 334.383 10.9844 334.398 11.7656C334.414 12.5469 334.438 13.2266 334.469 13.8047C334.516 14.3672 334.578 14.7266 334.656 14.8828C334.766 15.0703 334.914 15.2891 335.102 15.5391C335.273 15.7578 335.492 16.0078 335.758 16.2891C336.039 16.5703 336.406 16.8828 336.859 17.2266C336.141 17.2578 335.539 17.2812 335.055 17.2969C334.586 17.3125 334.195 17.3281 333.883 17.3438C333.523 17.3594 333.234 17.3672 333.016 17.3672C332.781 17.3672 332.461 17.375 332.055 17.3906C331.695 17.4062 331.219 17.4297 330.625 17.4609C330.031 17.4766 329.266 17.5078 328.328 17.5547C328.547 17.3047 328.75 17.0547 328.938 16.8047C329.125 16.5547 329.281 16.3281 329.406 16.125C329.562 15.8906 329.695 15.6641 329.805 15.4453C329.914 15.1484 330 14.6094 330.062 13.8281C330.125 13.1562 330.172 12.1953 330.203 10.9453C330.234 9.67969 330.234 7.98438 330.203 5.85938C329.906 6.34375 329.641 6.82812 329.406 7.3125C329.188 7.78125 328.992 8.21094 328.82 8.60156C328.633 9.05469 328.461 9.49219 328.305 9.91406C328.148 10.3516 327.984 10.8359 327.812 11.3672C327.656 11.8203 327.469 12.3594 327.25 12.9844C327.047 13.6094 326.812 14.2969 326.547 15.0469L325.656 15.0938C325.531 14.4688 325.406 13.9062 325.281 13.4062C325.156 12.8906 325.031 12.4531 324.906 12.0938C324.766 11.6719 324.625 11.2969 324.484 10.9688C324.328 10.6406 324.156 10.2734 323.969 9.86719C323.797 9.52344 323.586 9.11719 323.336 8.64844C323.102 8.17969 322.828 7.65625 322.516 7.07812C322.359 8.67188 322.266 9.96875 322.234 10.9688C322.203 11.9531 322.203 12.7188 322.234 13.2656C322.266 13.9219 322.312 14.3984 322.375 14.6953C322.469 14.9609 322.617 15.2578 322.82 15.5859C322.992 15.8672 323.227 16.2031 323.523 16.5938C323.836 16.9688 324.234 17.3906 324.719 17.8594C324.375 17.8594 324.016 17.8594 323.641 17.8594C323.266 17.8594 322.922 17.8672 322.609 17.8828C322.234 17.8984 321.867 17.9062 321.508 17.9062C321.133 17.9219 320.695 17.9453 320.195 17.9766C319.758 18.0078 319.234 18.0391 318.625 18.0703C318.016 18.1016 317.312 18.1562 316.516 18.2344C316.859 18.0156 317.141 17.8047 317.359 17.6016C317.578 17.3828 317.75 17.1875 317.875 17.0156C318.031 16.8125 318.148 16.6094 318.227 16.4062C318.273 16.2812 318.312 16.0078 318.344 15.5859C318.391 15.1641 318.43 14.6484 318.461 14.0391C318.508 13.4297 318.539 12.75 318.555 12C318.586 11.25 318.609 10.4922 318.625 9.72656C318.656 8.94531 318.68 8.1875 318.695 7.45312C318.711 6.70312 318.719 6.03125 318.719 5.4375C318.734 4.82812 318.742 4.32031 318.742 3.91406C318.742 3.50781 318.742 3.25 318.742 3.14062C318.695 2.90625 318.625 2.67188 318.531 2.4375C318.453 2.23438 318.328 2.02344 318.156 1.80469C317.984 1.58594 317.758 1.38281 317.477 1.19531ZM342.227 14.2266C342.664 14.2266 343.07 14.1797 343.445 14.0859C343.758 14.0078 344.055 13.8828 344.336 13.7109C344.633 13.5234 344.828 13.25 344.922 12.8906C345.234 12.9531 345.5 13.0078 345.719 13.0547C345.938 13.0859 346.125 13.1172 346.281 13.1484C346.453 13.1953 346.602 13.2266 346.727 13.2422C346.852 13.2734 347 13.3047 347.172 13.3359C347.328 13.3672 347.516 13.4062 347.734 13.4531C347.969 13.4844 348.242 13.5312 348.555 13.5938C348.32 13.5625 348.078 13.5859 347.828 13.6641C347.594 13.7422 347.367 13.8281 347.148 13.9219C346.898 14.0312 346.664 14.1641 346.445 14.3203C346.305 14.4141 346.141 14.5547 345.953 14.7422C345.781 14.9297 345.531 15.1094 345.203 15.2812C344.875 15.4531 344.438 15.6016 343.891 15.7266C343.359 15.8359 342.672 15.875 341.828 15.8438C340.812 15.8125 339.961 15.6328 339.273 15.3047C338.586 14.9609 338.031 14.5469 337.609 14.0625C337.188 13.5625 336.883 13.0234 336.695 12.4453C336.508 11.8672 336.406 11.3281 336.391 10.8281C336.375 10.3281 336.523 9.80469 336.836 9.25781C337.148 8.71094 337.586 8.21094 338.148 7.75781C338.727 7.30469 339.422 6.9375 340.234 6.65625C341.047 6.35938 341.938 6.21094 342.906 6.21094C343.469 6.21094 343.984 6.28125 344.453 6.42188C344.938 6.54688 345.375 6.71875 345.766 6.9375C346.172 7.15625 346.523 7.40625 346.82 7.6875C347.117 7.95312 347.367 8.22656 347.57 8.50781C347.773 8.80469 347.945 9.11719 348.086 9.44531C348.211 9.72656 348.312 10.0469 348.391 10.4062C348.469 10.7656 348.492 11.1328 348.461 11.5078C347.273 11.5391 346.312 11.5625 345.578 11.5781C344.859 11.5938 344.297 11.6016 343.891 11.6016H342.836H342.039C341.758 11.6016 341.391 11.6094 340.938 11.625C340.484 11.6406 339.93 11.6641 339.273 11.6953C339.352 12.3203 339.547 12.8047 339.859 13.1484C340.188 13.4766 340.531 13.7266 340.891 13.8984C341.297 14.0859 341.742 14.1953 342.227 14.2266ZM340.117 10.0078C340.617 10.0391 341.031 10.0625 341.359 10.0781C341.703 10.0938 341.984 10.1094 342.203 10.125C342.438 10.1406 342.625 10.1484 342.766 10.1484H343.352C343.742 10.1484 344.469 10.125 345.531 10.0781C345.484 9.39062 345.336 8.86719 345.086 8.50781C344.852 8.14844 344.602 7.88281 344.336 7.71094C344.023 7.52344 343.68 7.41406 343.305 7.38281C342.289 7.39844 341.531 7.60938 341.031 8.01562C340.547 8.42188 340.242 9.08594 340.117 10.0078ZM350.125 15.4219C350.234 14.9062 350.312 14.4531 350.359 14.0625C350.422 13.6562 350.469 13.3203 350.5 13.0547C350.531 12.7422 350.547 12.4766 350.547 12.2578C350.531 11.9922 350.516 11.6797 350.5 11.3203C350.5 10.9453 350.484 10.5781 350.453 10.2188C350.438 9.84375 350.414 9.51562 350.383 9.23438C350.352 8.9375 350.312 8.72656 350.266 8.60156C350.203 8.47656 350.117 8.34375 350.008 8.20312C349.789 7.9375 349.469 7.67969 349.047 7.42969C349.406 7.35156 349.711 7.28906 349.961 7.24219C350.227 7.17969 350.445 7.125 350.617 7.07812C350.805 7.01562 350.969 6.96094 351.109 6.91406C351.234 6.86719 351.383 6.82031 351.555 6.77344C351.695 6.74219 351.867 6.70312 352.07 6.65625C352.273 6.60938 352.508 6.55469 352.773 6.49219L352.703 8.625C353.203 8.03125 353.711 7.58594 354.227 7.28906C354.742 6.99219 355.227 6.78125 355.68 6.65625C356.195 6.5 356.703 6.42188 357.203 6.42188C357.828 6.45312 358.406 6.55469 358.938 6.72656C359.484 6.89844 359.953 7.10156 360.344 7.33594C360.75 7.55469 361.078 7.78906 361.328 8.03906C361.578 8.28906 361.727 8.50781 361.773 8.69531C361.961 9.30469 362.008 9.86719 361.914 10.3828C361.82 10.8828 361.695 11.375 361.539 11.8594C361.398 12.3281 361.273 12.7969 361.164 13.2656C361.07 13.7344 361.109 14.2422 361.281 14.7891C361.344 14.9297 361.406 15.0703 361.469 15.2109C361.531 15.3359 361.609 15.4609 361.703 15.5859C361.797 15.7109 361.906 15.8125 362.031 15.8906C361.859 15.875 361.688 15.8672 361.516 15.8672C361.344 15.8516 361.188 15.8359 361.047 15.8203C360.875 15.8047 360.719 15.7891 360.578 15.7734C360.422 15.7578 360.211 15.75 359.945 15.75C359.492 15.75 358.789 15.7734 357.836 15.8203C357.977 15.4922 358.086 15.2188 358.164 15C358.258 14.7656 358.336 14.5781 358.398 14.4375C358.461 14.2656 358.508 14.1328 358.539 14.0391C358.727 13.5859 358.836 13.0703 358.867 12.4922C358.914 11.9141 358.875 11.3281 358.75 10.7344C358.703 10.5312 358.625 10.2891 358.516 10.0078C358.406 9.72656 358.258 9.45312 358.07 9.1875C357.898 8.92188 357.688 8.69531 357.438 8.50781C357.203 8.32031 356.93 8.21094 356.617 8.17969C356.305 8.14844 355.953 8.22656 355.562 8.41406C355.188 8.60156 354.781 8.94531 354.344 9.44531C354.016 9.86719 353.758 10.3828 353.57 10.9922C353.398 11.5078 353.281 12.1562 353.219 12.9375C353.156 13.7031 353.25 14.6016 353.5 15.6328C353.281 15.6016 353.078 15.5859 352.891 15.5859C352.703 15.5703 352.547 15.5547 352.422 15.5391C352.266 15.5234 352.125 15.5078 352 15.4922C351.859 15.4922 351.703 15.4844 351.531 15.4688C351.375 15.4688 351.18 15.4688 350.945 15.4688C350.711 15.4531 350.438 15.4375 350.125 15.4219ZM369.555 14.2266C369.992 14.2266 370.398 14.1797 370.773 14.0859C371.086 14.0078 371.383 13.8828 371.664 13.7109C371.961 13.5234 372.156 13.25 372.25 12.8906C372.562 12.9531 372.828 13.0078 373.047 13.0547C373.266 13.0859 373.453 13.1172 373.609 13.1484C373.781 13.1953 373.93 13.2266 374.055 13.2422C374.18 13.2734 374.328 13.3047 374.5 13.3359C374.656 13.3672 374.844 13.4062 375.062 13.4531C375.297 13.4844 375.57 13.5312 375.883 13.5938C375.648 13.5625 375.406 13.5859 375.156 13.6641C374.922 13.7422 374.695 13.8281 374.477 13.9219C374.227 14.0312 373.992 14.1641 373.773 14.3203C373.633 14.4141 373.469 14.5547 373.281 14.7422C373.109 14.9297 372.859 15.1094 372.531 15.2812C372.203 15.4531 371.766 15.6016 371.219 15.7266C370.688 15.8359 370 15.875 369.156 15.8438C368.141 15.8125 367.289 15.6328 366.602 15.3047C365.914 14.9609 365.359 14.5469 364.938 14.0625C364.516 13.5625 364.211 13.0234 364.023 12.4453C363.836 11.8672 363.734 11.3281 363.719 10.8281C363.703 10.3281 363.852 9.80469 364.164 9.25781C364.477 8.71094 364.914 8.21094 365.477 7.75781C366.055 7.30469 366.75 6.9375 367.562 6.65625C368.375 6.35938 369.266 6.21094 370.234 6.21094C370.797 6.21094 371.312 6.28125 371.781 6.42188C372.266 6.54688 372.703 6.71875 373.094 6.9375C373.5 7.15625 373.852 7.40625 374.148 7.6875C374.445 7.95312 374.695 8.22656 374.898 8.50781C375.102 8.80469 375.273 9.11719 375.414 9.44531C375.539 9.72656 375.641 10.0469 375.719 10.4062C375.797 10.7656 375.82 11.1328 375.789 11.5078C374.602 11.5391 373.641 11.5625 372.906 11.5781C372.188 11.5938 371.625 11.6016 371.219 11.6016H370.164H369.367C369.086 11.6016 368.719 11.6094 368.266 11.625C367.812 11.6406 367.258 11.6641 366.602 11.6953C366.68 12.3203 366.875 12.8047 367.188 13.1484C367.516 13.4766 367.859 13.7266 368.219 13.8984C368.625 14.0859 369.07 14.1953 369.555 14.2266ZM367.445 10.0078C367.945 10.0391 368.359 10.0625 368.688 10.0781C369.031 10.0938 369.312 10.1094 369.531 10.125C369.766 10.1406 369.953 10.1484 370.094 10.1484H370.68C371.07 10.1484 371.797 10.125 372.859 10.0781C372.812 9.39062 372.664 8.86719 372.414 8.50781C372.18 8.14844 371.93 7.88281 371.664 7.71094C371.352 7.52344 371.008 7.41406 370.633 7.38281C369.617 7.39844 368.859 7.60938 368.359 8.01562C367.875 8.42188 367.57 9.08594 367.445 10.0078ZM376.492 4.42969C377.211 4.49219 377.844 4.53906 378.391 4.57031C378.953 4.58594 379.422 4.60938 379.797 4.64062C380.234 4.67188 380.617 4.69531 380.945 4.71094C381.289 4.72656 381.727 4.72656 382.258 4.71094C382.711 4.71094 383.289 4.70312 383.992 4.6875C384.711 4.65625 385.586 4.60938 386.617 4.54688L386.43 7.80469C385.977 8.25781 385.57 8.67969 385.211 9.07031C384.867 9.46094 384.562 9.79688 384.297 10.0781C384 10.4062 383.734 10.7031 383.5 10.9688C383.266 11.25 383 11.5859 382.703 11.9766C382.438 12.3203 382.117 12.7422 381.742 13.2422C381.367 13.7266 380.938 14.2969 380.453 14.9531C381.312 14.9062 382.016 14.8594 382.562 14.8125C383.109 14.75 383.539 14.6953 383.852 14.6484C384.227 14.5859 384.5 14.5391 384.672 14.5078C384.828 14.4453 385.008 14.3125 385.211 14.1094C385.383 13.9375 385.594 13.6797 385.844 13.3359C386.094 12.9922 386.375 12.5234 386.688 11.9297C386.688 12.4141 386.688 12.8281 386.688 13.1719C386.703 13.5 386.711 13.7734 386.711 13.9922V14.625V15.1641C386.711 15.3359 386.711 15.5469 386.711 15.7969C386.727 16.0469 386.742 16.3281 386.758 16.6406C386.148 16.5625 385.594 16.5078 385.094 16.4766C384.594 16.4297 384.164 16.3984 383.805 16.3828C383.383 16.3672 383 16.3672 382.656 16.3828C382.312 16.4141 381.883 16.4453 381.367 16.4766C380.93 16.5078 380.391 16.5391 379.75 16.5703C379.109 16.6016 378.352 16.6406 377.477 16.6875L376.961 14.2031C377.242 14.0781 377.578 13.8359 377.969 13.4766C378.359 13.1172 378.734 12.75 379.094 12.375C379.5 11.9375 379.93 11.4609 380.383 10.9453C380.82 10.4297 381.25 9.91406 381.672 9.39844C382.031 8.96094 382.406 8.50781 382.797 8.03906C383.203 7.57031 383.555 7.15625 383.852 6.79688C383.008 6.82812 382.312 6.89062 381.766 6.98438C381.219 7.0625 380.789 7.14062 380.477 7.21875C380.102 7.3125 379.82 7.42188 379.633 7.54688C379.461 7.6875 379.25 7.89844 379 8.17969C378.781 8.41406 378.516 8.73438 378.203 9.14062C377.891 9.53125 377.531 10.0391 377.125 10.6641C377.125 10.1484 377.117 9.6875 377.102 9.28125C377.086 8.85938 377.07 8.50781 377.055 8.22656C377.023 7.89844 377 7.60938 376.984 7.35938C376.953 7.10938 376.914 6.83594 376.867 6.53906C376.836 6.27344 376.781 5.96875 376.703 5.625C376.641 5.26562 376.57 4.86719 376.492 4.42969ZM393.672 14.2266C394.109 14.2266 394.516 14.1797 394.891 14.0859C395.203 14.0078 395.5 13.8828 395.781 13.7109C396.078 13.5234 396.273 13.25 396.367 12.8906C396.68 12.9531 396.945 13.0078 397.164 13.0547C397.383 13.0859 397.57 13.1172 397.727 13.1484C397.898 13.1953 398.047 13.2266 398.172 13.2422C398.297 13.2734 398.445 13.3047 398.617 13.3359C398.773 13.3672 398.961 13.4062 399.18 13.4531C399.414 13.4844 399.688 13.5312 400 13.5938C399.766 13.5625 399.523 13.5859 399.273 13.6641C399.039 13.7422 398.812 13.8281 398.594 13.9219C398.344 14.0312 398.109 14.1641 397.891 14.3203C397.75 14.4141 397.586 14.5547 397.398 14.7422C397.227 14.9297 396.977 15.1094 396.648 15.2812C396.32 15.4531 395.883 15.6016 395.336 15.7266C394.805 15.8359 394.117 15.875 393.273 15.8438C392.258 15.8125 391.406 15.6328 390.719 15.3047C390.031 14.9609 389.477 14.5469 389.055 14.0625C388.633 13.5625 388.328 13.0234 388.141 12.4453C387.953 11.8672 387.852 11.3281 387.836 10.8281C387.82 10.3281 387.969 9.80469 388.281 9.25781C388.594 8.71094 389.031 8.21094 389.594 7.75781C390.172 7.30469 390.867 6.9375 391.68 6.65625C392.492 6.35938 393.383 6.21094 394.352 6.21094C394.914 6.21094 395.43 6.28125 395.898 6.42188C396.383 6.54688 396.82 6.71875 397.211 6.9375C397.617 7.15625 397.969 7.40625 398.266 7.6875C398.562 7.95312 398.812 8.22656 399.016 8.50781C399.219 8.80469 399.391 9.11719 399.531 9.44531C399.656 9.72656 399.758 10.0469 399.836 10.4062C399.914 10.7656 399.938 11.1328 399.906 11.5078C398.719 11.5391 397.758 11.5625 397.023 11.5781C396.305 11.5938 395.742 11.6016 395.336 11.6016H394.281H393.484C393.203 11.6016 392.836 11.6094 392.383 11.625C391.93 11.6406 391.375 11.6641 390.719 11.6953C390.797 12.3203 390.992 12.8047 391.305 13.1484C391.633 13.4766 391.977 13.7266 392.336 13.8984C392.742 14.0859 393.188 14.1953 393.672 14.2266ZM391.562 10.0078C392.062 10.0391 392.477 10.0625 392.805 10.0781C393.148 10.0938 393.43 10.1094 393.648 10.125C393.883 10.1406 394.07 10.1484 394.211 10.1484H394.797C395.188 10.1484 395.914 10.125 396.977 10.0781C396.93 9.39062 396.781 8.86719 396.531 8.50781C396.297 8.14844 396.047 7.88281 395.781 7.71094C395.469 7.52344 395.125 7.41406 394.75 7.38281C393.734 7.39844 392.977 7.60938 392.477 8.01562C391.992 8.42188 391.688 9.08594 391.562 10.0078ZM411.18 4.61719C411.039 4.96094 410.914 5.27344 410.805 5.55469C410.711 5.83594 410.625 6.08594 410.547 6.30469C410.469 6.55469 410.398 6.77344 410.336 6.96094C410.273 7.17969 410.203 7.42969 410.125 7.71094C410.047 7.96094 409.945 8.27344 409.82 8.64844C409.711 9.00781 409.578 9.4375 409.422 9.9375C409.297 9.1875 409.07 8.59375 408.742 8.15625C408.414 7.70312 408.078 7.35156 407.734 7.10156C407.328 6.82031 406.891 6.61719 406.422 6.49219C405.578 6.35156 404.969 6.36719 404.594 6.53906C404.219 6.71094 403.969 6.92969 403.844 7.19531C403.781 7.30469 403.711 7.44531 403.633 7.61719C403.57 7.77344 403.516 7.9375 403.469 8.10938C403.438 8.28125 403.43 8.45312 403.445 8.625C403.461 8.79688 403.531 8.9375 403.656 9.04688C403.734 9.125 403.938 9.23438 404.266 9.375C404.594 9.5 404.984 9.64844 405.438 9.82031C405.906 9.97656 406.398 10.1484 406.914 10.3359C407.445 10.5234 407.945 10.7109 408.414 10.8984C408.883 11.0859 409.289 11.2734 409.633 11.4609C409.977 11.6484 410.203 11.8203 410.312 11.9766C410.406 12.1328 410.508 12.3438 410.617 12.6094C410.742 12.8594 410.828 13.1406 410.875 13.4531C410.938 13.75 410.953 14.0625 410.922 14.3906C410.906 14.7031 410.82 15.0156 410.664 15.3281C410.508 15.6406 410.258 15.9297 409.914 16.1953C409.586 16.4609 409.141 16.6797 408.578 16.8516C407.922 17.0547 407.289 17.1094 406.68 17.0156C406.07 16.9219 405.508 16.7812 404.992 16.5938C404.492 16.4062 404.055 16.2266 403.68 16.0547C403.305 15.8672 403.039 15.7891 402.883 15.8203C402.711 15.8516 402.516 15.9375 402.297 16.0781C402.078 16.2188 401.867 16.3672 401.664 16.5234C401.477 16.6641 401.312 16.7969 401.172 16.9219C401.031 17.0312 400.961 17.0703 400.961 17.0391C400.961 17.0078 400.984 16.9141 401.031 16.7578C401.094 16.6016 401.156 16.4141 401.219 16.1953C401.297 15.9609 401.367 15.7109 401.43 15.4453C401.508 15.1641 401.562 14.8984 401.594 14.6484C401.625 14.4453 401.664 14.1953 401.711 13.8984C401.742 13.6328 401.781 13.3125 401.828 12.9375C401.891 12.5469 401.961 12.0781 402.039 11.5312C402.117 11.9375 402.227 12.2891 402.367 12.5859C402.523 12.8828 402.672 13.1406 402.812 13.3594C402.984 13.6094 403.148 13.8203 403.305 13.9922C403.539 14.2109 403.812 14.4141 404.125 14.6016C404.453 14.7891 404.781 14.9531 405.109 15.0938C405.438 15.2188 405.75 15.2969 406.047 15.3281C406.344 15.3594 406.594 15.3281 406.797 15.2344C407 15.1406 407.172 14.9688 407.312 14.7188C407.469 14.4688 407.578 14.1953 407.641 13.8984C407.703 13.6016 407.727 13.3203 407.711 13.0547C407.695 12.7734 407.625 12.5469 407.5 12.375C407.406 12.2656 407.188 12.125 406.844 11.9531C406.516 11.7812 406.117 11.5938 405.648 11.3906C405.195 11.1875 404.711 10.9766 404.195 10.7578C403.695 10.5391 403.219 10.3203 402.766 10.1016C402.328 9.86719 401.961 9.64844 401.664 9.44531C401.383 9.22656 401.227 9.03125 401.195 8.85938C401.164 8.60938 401.141 8.33594 401.125 8.03906C401.109 7.72656 401.125 7.42188 401.172 7.125C401.234 6.8125 401.344 6.51562 401.5 6.23438C401.672 5.95312 401.922 5.71875 402.25 5.53125C402.469 5.40625 402.758 5.3125 403.117 5.25C403.477 5.1875 403.875 5.15625 404.312 5.15625C404.75 5.14062 405.203 5.15625 405.672 5.20312C406.141 5.23438 406.586 5.28125 407.008 5.34375C407.445 5.39062 407.836 5.45312 408.18 5.53125C408.539 5.60938 408.812 5.67969 409 5.74219C409.219 5.82031 409.453 5.82812 409.703 5.76562C409.922 5.71875 410.156 5.61719 410.406 5.46094C410.656 5.30469 410.914 5.02344 411.18 4.61719Z" fill="#0A3871"/>
</svg>
