<svg width="512" height="205" viewBox="0 0 512 205" fill="none" xmlns="http://www.w3.org/2000/svg">
<path d="M34.4375 37C34.4375 29.3125 34.5938 20.5781 34.9062 10.7969C34.9688 8.42188 40.1875 6.92188 50.5625 6.29688C50.75 5.70312 50.75 4.96875 50.5625 4.09375C42.375 4.34375 35.9844 4.46875 31.3906 4.46875C27.5469 4.46875 22.1094 4.34375 15.0781 4.09375C14.7969 4.65625 14.7969 5.39062 15.0781 6.29688C22.2344 6.98438 25.8438 8.48438 25.9062 10.7969C26.2188 18.1406 26.375 26.875 26.375 37V70.4219C26.375 79.5156 25.7188 85.875 24.4062 89.5C23.0938 93.1562 20.3594 94.9844 16.2031 94.9844C13.2031 94.9844 10.8906 94.1719 9.26562 92.5469C7.67188 90.9219 6.875 89.0469 6.875 86.9219C6.875 85.2656 7.29688 83.9531 8.14062 82.9844C8.98438 82.0156 9.98438 81.5312 11.1406 81.5312C12.2031 81.5312 13.125 81.9219 13.9062 82.7031C14.6875 82.5156 15.2031 81.9688 15.4531 81.0625C14.2969 79.4062 12.5938 78.5781 10.3438 78.5781C8.09375 78.5781 6.28125 79.2969 4.90625 80.7344C3.53125 82.1719 2.84375 84.1719 2.84375 86.7344C2.84375 89.7344 4.01562 92.3438 6.35938 94.5625C8.70312 96.8125 11.9844 97.9375 16.2031 97.9375C17.9219 97.9375 19.4844 97.75 20.8906 97.375C22.2969 97 23.5781 96.375 24.7344 95.5C25.8906 94.6562 26.9062 93.7031 27.7812 92.6406C28.6562 91.5781 29.4219 90.125 30.0781 88.2812C30.7656 86.4688 31.3438 84.6875 31.8125 82.9375C32.2812 81.1875 32.6719 78.9375 32.9844 76.1875C33.3281 73.4375 33.5938 70.8281 33.7812 68.3594C33.9688 65.8906 34.1094 62.7969 34.2031 59.0781C34.2969 55.3594 34.3594 51.9219 34.3906 48.7656C34.4219 45.6094 34.4375 41.6875 34.4375 37ZM17.375 99.8594C12 99.8594 7.9375 98.5781 5.1875 96.0156C2.40625 93.4844 0.984375 90.3906 0.921875 86.7344C0.859375 83.5156 1.78125 81.0156 3.6875 79.2344C5.5625 77.4531 7.75 76.5625 10.25 76.5625C12.625 76.5625 14.6719 77.3594 16.3906 78.9531C18.1094 80.5469 18.9688 82.75 18.9688 85.5625C18.9688 86.7812 18.7812 87.7969 18.4062 88.6094C18.0312 89.4531 17.6094 90.1094 17.1406 90.5781C16.7031 91.0781 16.4531 91.4219 16.3906 91.6094C16.6406 92.2031 17.1875 92.625 18.0312 92.875C20.6562 92.3125 22.375 90.3281 23.1875 86.9219C24.0312 83.5156 24.4531 78.0156 24.4531 70.4219V37C24.4531 26.9375 24.2969 18.2344 23.9844 10.8906C23.9219 9.73438 20.4375 8.8125 13.5312 8.125C13 6.0625 13.0625 4.04688 13.7188 2.07812C19.2188 2.39062 26.2188 2.54688 34.7188 2.54688C36 2.54688 38.5625 2.51562 42.4062 2.45312C46.25 2.39062 49.6094 2.35938 52.4844 2.35938C53.0781 4.14062 53.1094 6.0625 52.5781 8.125C45.6719 8.8125 42.1875 9.73438 42.125 10.8906C41.75 18.7031 41.5625 28.5625 41.5625 40.4688C41.5625 45.5312 41.5 50.0156 41.375 53.9219C41.25 57.7969 40.9688 61.8906 40.5312 66.2031C40.125 70.4844 39.5625 74.1875 38.8438 77.3125C38.1562 80.4688 37.2031 83.5312 35.9844 86.5C34.7656 89.4688 33.3125 91.875 31.625 93.7188C29.9375 95.5938 27.8906 97.0781 25.4844 98.1719C23.0781 99.2969 20.375 99.8594 17.375 99.8594ZM99.8281 7.89062C97.4219 8.07812 95.2656 8.65625 93.3594 9.625C91.4531 10.5938 89.7812 11.8594 88.3438 13.4219C86.9062 14.9531 85.6719 16.7188 84.6406 18.7188C83.6406 20.6875 82.8125 22.7812 82.1562 25C81.5312 27.2188 81.0625 29.5156 80.75 31.8906C80.4688 34.2344 80.3281 36.5469 80.3281 38.8281C80.3281 41.1094 80.4688 43.4375 80.75 45.8125C81.0625 48.1562 81.5469 50.4375 82.2031 52.6562C82.8594 54.875 83.6875 56.9688 84.6875 58.9375C85.7188 60.9062 86.9531 62.6562 88.3906 64.1875C89.8594 65.6875 91.5312 66.9062 93.4062 67.8438C95.3125 68.7812 97.4531 69.3438 99.8281 69.5312C102.266 69.3438 104.438 68.7812 106.344 67.8438C108.25 66.875 109.922 65.6406 111.359 64.1406C112.828 62.6094 114.062 60.8594 115.062 58.8906C116.094 56.8906 116.922 54.7969 117.547 52.6094C118.203 50.3906 118.672 48.1094 118.953 45.7656C119.266 43.3906 119.422 41.0781 119.422 38.8281C119.422 36.5469 119.266 34.2344 118.953 31.8906C118.672 29.5156 118.203 27.2188 117.547 25C116.922 22.75 116.094 20.6406 115.062 18.6719C114.062 16.6719 112.828 14.9062 111.359 13.375C109.922 11.8438 108.234 10.5938 106.297 9.625C104.391 8.65625 102.234 8.07812 99.8281 7.89062ZM98.1875 71.5469C95.0938 71.5469 92.3281 71.0938 89.8906 70.1875C87.4531 69.25 85.2969 68 83.4219 66.4375C81.5781 64.8438 80 62.9844 78.6875 60.8594C77.4062 58.7344 76.3438 56.4688 75.5 54.0625C74.6875 51.625 74.0938 49.1094 73.7188 46.5156C73.3438 43.8906 73.1562 41.3281 73.1562 38.8281C73.1562 36.3281 73.3438 33.7812 73.7188 31.1875C74.0938 28.5625 74.6875 26.0312 75.5 23.5938C76.3125 21.1562 77.375 18.8594 78.6875 16.7031C80 14.5469 81.5781 12.6719 83.4219 11.0781C85.2656 9.48438 87.4062 8.21875 89.8438 7.28125C92.3125 6.34375 95.0938 5.875 98.1875 5.875C101.031 5.875 103.578 6.34375 105.828 7.28125C108.078 8.1875 110.047 9.45312 111.734 11.0781C113.453 12.6719 114.922 14.5469 116.141 16.7031C117.359 18.8594 118.344 21.1562 119.094 23.5938C119.875 26.0312 120.438 28.5625 120.781 31.1875C121.156 33.7812 121.344 36.3281 121.344 38.8281C121.344 41.3281 121.172 43.875 120.828 46.4688C120.484 49.0312 119.922 51.5312 119.141 53.9688C118.391 56.375 117.406 58.6562 116.188 60.8125C115 62.9375 113.547 64.7969 111.828 66.3906C110.109 67.9844 108.125 69.25 105.875 70.1875C103.625 71.0938 101.062 71.5469 98.1875 71.5469ZM98.1875 74.9219C100.344 74.9219 102.672 74.7031 105.172 74.2656C107.672 73.8281 110.156 73.0781 112.625 72.0156C115.125 70.9531 117.531 69.5312 119.844 67.75C122.156 65.9688 124.188 63.75 125.938 61.0938C127.719 58.4062 129.141 55.2344 130.203 51.5781C131.266 47.8906 131.797 43.6406 131.797 38.8281C131.797 34.1094 131.266 29.9375 130.203 26.3125C129.172 22.6562 127.781 19.4844 126.031 16.7969C124.281 14.1094 122.266 11.8594 119.984 10.0469C117.703 8.23438 115.312 6.78125 112.812 5.6875C110.312 4.5625 107.797 3.76562 105.266 3.29688C102.766 2.79688 100.406 2.54688 98.1875 2.54688C96.0312 2.54688 93.6562 2.76562 91.0625 3.20312C88.4688 3.60938 85.8594 4.34375 83.2344 5.40625C80.6094 6.4375 78.0625 7.84375 75.5938 9.625C73.125 11.4062 70.9375 13.6406 69.0312 16.3281C67.125 19.0156 65.5938 22.2188 64.4375 25.9375C63.2812 29.625 62.7031 33.9219 62.7031 38.8281C62.7031 43.5781 63.25 47.7656 64.3438 51.3906C65.4688 55.0156 66.9531 58.1719 68.7969 60.8594C70.6406 63.5156 72.7656 65.75 75.1719 67.5625C77.6094 69.3438 80.1406 70.7812 82.7656 71.875C85.3906 72.9688 88.0312 73.75 90.6875 74.2188C93.3438 74.6875 95.8438 74.9219 98.1875 74.9219ZM99.8281 77.0312C93.5469 77.0312 87.9844 76.1094 83.1406 74.2656C78.2969 72.4531 74.2188 69.8906 70.9062 66.5781C67.5938 63.2344 65.0781 59.2188 63.3594 54.5312C61.6406 49.8125 60.7812 44.5781 60.7812 38.8281C60.7812 33.0781 61.6406 27.8594 63.3594 23.1719C65.0781 18.4531 67.5938 14.4375 70.9062 11.125C74.2188 7.78125 78.2969 5.20312 83.1406 3.39062C87.9844 1.54688 93.5469 0.625 99.8281 0.625C105.734 0.625 111.094 1.46875 115.906 3.15625C120.75 4.84375 124.875 7.3125 128.281 10.5625C131.719 13.7812 134.359 17.7656 136.203 22.5156C138.078 27.2656 139.016 32.7031 139.016 38.8281C139.016 44.9844 138.078 50.4375 136.203 55.1875C134.359 59.9062 131.719 63.8906 128.281 67.1406C124.875 70.3906 120.75 72.8438 115.906 74.5C111.094 76.1875 105.734 77.0312 99.8281 77.0312ZM187.672 2.54688C184.672 2.54688 181.625 2.875 178.531 3.53125C175.469 4.15625 172.25 5.32812 168.875 7.04688C165.531 8.76562 162.578 10.9375 160.016 13.5625C157.453 16.1875 155.344 19.6875 153.688 24.0625C152.031 28.4062 151.203 33.3281 151.203 38.8281C151.203 44.3281 152.031 49.2656 153.688 53.6406C155.344 57.9844 157.453 61.4531 160.016 64.0469C162.578 66.6094 165.531 68.75 168.875 70.4688C172.25 72.1562 175.469 73.3125 178.531 73.9375C181.625 74.5938 184.672 74.9219 187.672 74.9219C192.391 74.9219 196.625 74.4688 200.375 73.5625C204.125 72.6875 208.375 71.3125 213.125 69.4375C211.719 65.5938 211.016 60.7344 211.016 54.8594V47.9219C211.016 45.6406 216.219 44.1406 226.625 43.4219C226.969 42.6719 226.969 41.9375 226.625 41.2188C218.438 41.4688 212.047 41.5938 207.453 41.5938C203.609 41.5938 198.172 41.4688 191.141 41.2188C190.922 41.9375 190.922 42.6719 191.141 43.4219C198.359 44.1406 201.969 45.6406 201.969 47.9219V66.9531C199.281 70.0156 194.516 71.5469 187.672 71.5469C184.016 71.5469 180.688 70.875 177.688 69.5312C174.688 68.1875 172.203 66.4219 170.234 64.2344C168.297 62.0156 166.672 59.4531 165.359 56.5469C164.047 53.6406 163.094 50.7188 162.5 47.7812C161.938 44.8125 161.656 41.8281 161.656 38.8281C161.656 34.9844 162.125 31.2344 163.062 27.5781C164.031 23.8906 165.484 20.3906 167.422 17.0781C169.391 13.7344 172.109 11.0312 175.578 8.96875C179.078 6.90625 183.109 5.875 187.672 5.875C190.734 5.875 193.578 6.35938 196.203 7.32812C198.828 8.29688 200.984 9.4375 202.672 10.75C204.391 12.0625 206.047 13.8281 207.641 16.0469C209.234 18.2344 210.438 20.1406 211.25 21.7656C212.094 23.3594 213.094 25.3906 214.25 27.8594C215.219 27.7344 215.797 27.3906 215.984 26.8281C213.672 17.5469 210.172 11.1875 205.484 7.75C200.828 4.28125 194.891 2.54688 187.672 2.54688ZM213.125 29.9688C211.781 26.9688 210.547 24.5 209.422 22.5625C208.297 20.5938 206.781 18.4062 204.875 16C203 13.5625 200.766 11.6719 198.172 10.3281C195.578 8.98438 192.688 8.17188 189.5 7.89062C185.844 8.10938 182.625 9.21875 179.844 11.2188C177.062 13.1875 174.906 15.7188 173.375 18.8125C171.844 21.9062 170.703 25.1406 169.953 28.5156C169.203 31.8594 168.828 35.2969 168.828 38.8281C168.828 43.7031 169.484 48.3594 170.797 52.7969C172.109 57.2344 174.406 61.1562 177.688 64.5625C181 67.9375 185.062 69.625 189.875 69.625C194.344 69.625 197.734 68.4844 200.047 66.2031V47.9219C200.047 46.8594 196.562 45.9688 189.594 45.25C188.75 43.0625 188.812 41.0469 189.781 39.2031C199.125 39.6406 212.047 39.7344 228.547 39.4844C229.266 41.3594 229.297 43.2812 228.641 45.25C221.672 45.9688 218.188 46.8594 218.188 47.9219V54.8594C218.188 60.5469 219.078 65.7969 220.859 70.6094C216.453 72.2656 213.172 73.4062 211.016 74.0312C208.891 74.6875 205.797 75.3125 201.734 75.9062C197.672 76.5312 192.984 76.8438 187.672 76.8438C184.453 76.8438 181.234 76.5 178.016 75.8125C174.797 75.1562 171.422 73.9375 167.891 72.1562C164.359 70.3438 161.25 68.0781 158.562 65.3594C155.875 62.6406 153.656 59 151.906 54.4375C150.156 49.8438 149.281 44.6406 149.281 38.8281C149.281 33.0156 150.141 27.8281 151.859 23.2656C153.578 18.6719 155.766 15 158.422 12.25C161.078 9.5 164.141 7.21875 167.609 5.40625C171.109 3.5625 174.453 2.3125 177.641 1.65625C180.859 0.96875 184.078 0.625 187.297 0.625C192.484 0.625 198.234 1.28125 204.547 2.59375C210.891 3.90625 214.922 4.65625 216.641 4.84375C215.641 8.875 215.25 12.4219 215.469 15.4844C215.688 18.5156 216.562 22.2344 218.094 26.6406C217.188 28.4844 215.531 29.5938 213.125 29.9688ZM274.766 7.89062C272.359 8.07812 270.203 8.65625 268.297 9.625C266.391 10.5938 264.719 11.8594 263.281 13.4219C261.844 14.9531 260.609 16.7188 259.578 18.7188C258.578 20.6875 257.75 22.7812 257.094 25C256.469 27.2188 256 29.5156 255.688 31.8906C255.406 34.2344 255.266 36.5469 255.266 38.8281C255.266 41.1094 255.406 43.4375 255.688 45.8125C256 48.1562 256.484 50.4375 257.141 52.6562C257.797 54.875 258.625 56.9688 259.625 58.9375C260.656 60.9062 261.891 62.6562 263.328 64.1875C264.797 65.6875 266.469 66.9062 268.344 67.8438C270.25 68.7812 272.391 69.3438 274.766 69.5312C277.203 69.3438 279.375 68.7812 281.281 67.8438C283.188 66.875 284.859 65.6406 286.297 64.1406C287.766 62.6094 289 60.8594 290 58.8906C291.031 56.8906 291.859 54.7969 292.484 52.6094C293.141 50.3906 293.609 48.1094 293.891 45.7656C294.203 43.3906 294.359 41.0781 294.359 38.8281C294.359 36.5469 294.203 34.2344 293.891 31.8906C293.609 29.5156 293.141 27.2188 292.484 25C291.859 22.75 291.031 20.6406 290 18.6719C289 16.6719 287.766 14.9062 286.297 13.375C284.859 11.8438 283.172 10.5938 281.234 9.625C279.328 8.65625 277.172 8.07812 274.766 7.89062ZM273.125 71.5469C270.031 71.5469 267.266 71.0938 264.828 70.1875C262.391 69.25 260.234 68 258.359 66.4375C256.516 64.8438 254.938 62.9844 253.625 60.8594C252.344 58.7344 251.281 56.4688 250.438 54.0625C249.625 51.625 249.031 49.1094 248.656 46.5156C248.281 43.8906 248.094 41.3281 248.094 38.8281C248.094 36.3281 248.281 33.7812 248.656 31.1875C249.031 28.5625 249.625 26.0312 250.438 23.5938C251.25 21.1562 252.312 18.8594 253.625 16.7031C254.938 14.5469 256.516 12.6719 258.359 11.0781C260.203 9.48438 262.344 8.21875 264.781 7.28125C267.25 6.34375 270.031 5.875 273.125 5.875C275.969 5.875 278.516 6.34375 280.766 7.28125C283.016 8.1875 284.984 9.45312 286.672 11.0781C288.391 12.6719 289.859 14.5469 291.078 16.7031C292.297 18.8594 293.281 21.1562 294.031 23.5938C294.812 26.0312 295.375 28.5625 295.719 31.1875C296.094 33.7812 296.281 36.3281 296.281 38.8281C296.281 41.3281 296.109 43.875 295.766 46.4688C295.422 49.0312 294.859 51.5312 294.078 53.9688C293.328 56.375 292.344 58.6562 291.125 60.8125C289.938 62.9375 288.484 64.7969 286.766 66.3906C285.047 67.9844 283.062 69.25 280.812 70.1875C278.562 71.0938 276 71.5469 273.125 71.5469ZM273.125 74.9219C275.281 74.9219 277.609 74.7031 280.109 74.2656C282.609 73.8281 285.094 73.0781 287.562 72.0156C290.062 70.9531 292.469 69.5312 294.781 67.75C297.094 65.9688 299.125 63.75 300.875 61.0938C302.656 58.4062 304.078 55.2344 305.141 51.5781C306.203 47.8906 306.734 43.6406 306.734 38.8281C306.734 34.1094 306.203 29.9375 305.141 26.3125C304.109 22.6562 302.719 19.4844 300.969 16.7969C299.219 14.1094 297.203 11.8594 294.922 10.0469C292.641 8.23438 290.25 6.78125 287.75 5.6875C285.25 4.5625 282.734 3.76562 280.203 3.29688C277.703 2.79688 275.344 2.54688 273.125 2.54688C270.969 2.54688 268.594 2.76562 266 3.20312C263.406 3.60938 260.797 4.34375 258.172 5.40625C255.547 6.4375 253 7.84375 250.531 9.625C248.062 11.4062 245.875 13.6406 243.969 16.3281C242.062 19.0156 240.531 22.2188 239.375 25.9375C238.219 29.625 237.641 33.9219 237.641 38.8281C237.641 43.5781 238.188 47.7656 239.281 51.3906C240.406 55.0156 241.891 58.1719 243.734 60.8594C245.578 63.5156 247.703 65.75 250.109 67.5625C252.547 69.3438 255.078 70.7812 257.703 71.875C260.328 72.9688 262.969 73.75 265.625 74.2188C268.281 74.6875 270.781 74.9219 273.125 74.9219ZM274.766 77.0312C268.484 77.0312 262.922 76.1094 258.078 74.2656C253.234 72.4531 249.156 69.8906 245.844 66.5781C242.531 63.2344 240.016 59.2188 238.297 54.5312C236.578 49.8125 235.719 44.5781 235.719 38.8281C235.719 33.0781 236.578 27.8594 238.297 23.1719C240.016 18.4531 242.531 14.4375 245.844 11.125C249.156 7.78125 253.234 5.20312 258.078 3.39062C262.922 1.54688 268.484 0.625 274.766 0.625C280.672 0.625 286.031 1.46875 290.844 3.15625C295.688 4.84375 299.812 7.3125 303.219 10.5625C306.656 13.7812 309.297 17.7656 311.141 22.5156C313.016 27.2656 313.953 32.7031 313.953 38.8281C313.953 44.9844 313.016 50.4375 311.141 55.1875C309.297 59.9062 306.656 63.8906 303.219 67.1406C299.812 70.3906 295.688 72.8438 290.844 74.5C286.031 76.1875 280.672 77.0312 274.766 77.0312ZM368.703 8.03125C372.109 7.625 375.703 7.42188 379.484 7.42188C383.641 7.42188 387.359 8.07812 390.641 9.39062C393.953 10.7031 396.625 12.3906 398.656 14.4531C400.719 16.4844 402.406 18.8906 403.719 21.6719C405.031 24.4531 405.938 27.2188 406.438 29.9688C406.969 32.6875 407.234 35.4844 407.234 38.3594C407.234 47.8281 404.578 55.4062 399.266 61.0938C393.953 66.7812 386.297 69.625 376.297 69.625L368.609 69.5312C368.297 56.5625 368.141 46.875 368.141 40.4688C368.141 28.875 368.328 18.0625 368.703 8.03125ZM378.781 74.9219C368.312 74.9219 357.859 75.0469 347.422 75.2969C346.641 73.1406 346.641 71.125 347.422 69.25C354.203 68.5625 357.625 67.6406 357.688 66.4844C358.062 56.6719 358.25 46.8438 358.25 37C358.25 26.9375 358.094 18.2344 357.781 10.8906C357.719 9.73438 354.234 8.8125 347.328 8.125C346.797 6.125 346.859 4.10938 347.516 2.07812C351.359 2.14062 363.328 2.17188 383.422 2.17188C387.766 2.17188 391.75 2.4375 395.375 2.96875C399.031 3.5 402.75 4.57812 406.531 6.20312C410.312 7.79688 413.5 9.89062 416.094 12.4844C418.688 15.0781 420.797 18.5781 422.422 22.9844C424.047 27.3906 424.859 32.5469 424.859 38.4531C424.859 44.0781 423.906 49.0625 422 53.4062C420.094 57.75 417.594 61.25 414.5 63.9062C411.438 66.5625 407.828 68.75 403.672 70.4688C399.516 72.1562 395.422 73.3125 391.391 73.9375C387.359 74.5938 383.156 74.9219 378.781 74.9219ZM375.922 9.71875C375.547 20.6875 375.359 30.9375 375.359 40.4688C375.359 48.2188 375.484 57.2969 375.734 67.7031C385.578 67.4531 392.969 64.6875 397.906 59.4062C402.844 54.125 405.312 47.1094 405.312 38.3594C405.312 34.9531 404.906 31.7031 404.094 28.6094C403.281 25.4844 401.984 22.4531 400.203 19.5156C398.422 16.5781 395.812 14.2031 392.375 12.3906C388.969 10.5469 384.953 9.5625 380.328 9.4375C378.797 9.4375 377.328 9.53125 375.922 9.71875ZM348.734 73.2812C355.453 73.0938 364.359 73 375.453 73C379.422 73 383.25 72.7031 386.938 72.1094C390.656 71.4844 394.422 70.3594 398.234 68.7344C402.047 67.1094 405.344 65.0469 408.125 62.5469C410.906 60.0469 413.188 56.7188 414.969 52.5625C416.781 48.4062 417.688 43.6719 417.688 38.3594C417.688 15.5156 405.141 4.09375 380.047 4.09375C377.734 4.09375 374.453 4.14062 370.203 4.23438C365.953 4.32812 362.094 4.375 358.625 4.375C355.188 4.375 351.922 4.28125 348.828 4.09375C348.578 4.65625 348.578 5.39062 348.828 6.29688C356.016 6.98438 359.641 8.48438 359.703 10.7969C360.016 18.1406 360.172 26.875 360.172 37C360.172 46.9062 359.984 56.7656 359.609 66.5781C359.547 68.8906 355.922 70.3906 348.734 71.0781C348.422 71.7969 348.422 72.5312 348.734 73.2812ZM508.625 71.0781C506.875 70.9844 505.172 70.8594 503.516 70.7031C501.891 70.5156 500.406 70.2656 499.062 69.9531C497.719 69.6406 496.578 69.2344 495.641 68.7344C494.734 68.2031 494.141 67.5469 493.859 66.7656L467.938 2.73438C467.406 2.76562 466.891 2.98438 466.391 3.39062C466.172 7.26562 464.984 10.375 462.828 12.7188L463.906 15.4844L444.125 65.2188C442.875 68.3438 439.031 70.2969 432.594 71.0781C432.406 71.5156 432.312 71.9062 432.312 72.25C432.312 72.625 432.406 73 432.594 73.375C436.156 73.25 439.016 73.1562 441.172 73.0938C443.359 73.0312 444.859 73 445.672 73C446.391 73 448.016 73.0312 450.547 73.0938C453.109 73.1562 456.578 73.25 460.953 73.375C461.141 73 461.234 72.625 461.234 72.25C461.234 71.9062 461.141 71.5156 460.953 71.0781C458.359 70.8281 456.25 70.5625 454.625 70.2812C453 69.9688 451.734 69.6406 450.828 69.2969C449.922 68.9531 449.312 68.5781 449 68.1719C448.688 67.7344 448.531 67.25 448.531 66.7188C448.531 66.375 448.594 66.0312 448.719 65.6875L455.562 48.5312C459.031 48.4688 461.828 48.4219 463.953 48.3906C466.109 48.3594 467.594 48.3438 468.406 48.3438C470.188 48.3438 471.766 48.3594 473.141 48.3906C474.547 48.3906 475.75 48.4062 476.75 48.4375L483.547 65.6875C483.703 66.1562 483.781 66.5156 483.781 66.7656C483.781 67.6094 483.344 68.3594 482.469 69.0156C481.625 69.6719 480.578 70.125 479.328 70.375L474.266 71.0781C474.078 71.5156 473.984 71.9062 473.984 72.25C473.984 72.625 474.078 73 474.266 73.375C476.922 73.2812 479.609 73.2031 482.328 73.1406C485.078 73.0781 487.891 73.0469 490.766 73.0469C493.641 73.0469 496.547 73.0781 499.484 73.1406C502.453 73.2031 505.5 73.2812 508.625 73.375C508.844 72.9375 508.953 72.5625 508.953 72.25C508.953 72.0625 508.922 71.875 508.859 71.6875C508.797 71.5 508.719 71.2969 508.625 71.0781ZM468.406 44.6875C463.875 44.6875 460.141 44.625 457.203 44.5L466.109 21.5312H466.297L475.25 44.5938C473.562 44.6562 471.281 44.6875 468.406 44.6875ZM466.203 26.4531L459.969 42.6719C463.75 42.8594 467.906 42.8906 472.438 42.7656L466.203 26.4531ZM510.078 69.3438C510.859 71.2188 510.828 73.2031 509.984 75.2969H472.812C472.062 73.1406 472.062 71.1562 472.812 69.3438C476.219 69.1562 478.625 68.8125 480.031 68.3125C481.438 67.7812 481.922 66.9375 481.484 65.7812L475.344 50.2656C469.562 50.0469 463.375 50.1094 456.781 50.4531L450.734 65.9688C450.547 66.5 450.688 66.9844 451.156 67.4219C451.656 67.8281 452.453 68.1562 453.547 68.4062C454.641 68.6562 455.922 68.8594 457.391 69.0156C458.859 69.1719 460.516 69.2812 462.359 69.3438C463.141 71.2188 463.109 73.2031 462.266 75.2969C452.016 74.9219 441.688 74.9219 431.281 75.2969C430.438 73.2031 430.406 71.2188 431.188 69.3438C437.625 68.5938 441.266 67.1875 442.109 65.125L461.891 15.3906C461.766 15.1406 461.516 14.5781 461.141 13.7031C460.797 12.7969 460.594 12.2031 460.531 11.9219C462.969 9.45312 464.312 6.26562 464.562 2.35938C467.312 1.01562 470.547 0.25 474.266 0.0625L500.562 65.3125C501.156 66.7812 502.094 67.7656 503.375 68.2656C504.656 68.7344 506.891 69.0938 510.078 69.3438ZM97.0156 169.953H90.5C90.5 177.391 90.6562 185.266 90.9688 193.578C90.9688 193.766 91.0469 193.938 91.2031 194.094C91.3594 194.25 91.5781 194.406 91.8594 194.562C92.1719 194.719 92.6875 194.922 93.4062 195.172C94.125 195.422 95.5781 195.703 97.7656 196.016C99.9531 196.297 101.203 196.469 101.516 196.531C102.047 198.281 101.953 200.203 101.234 202.297C89.7031 202.047 82.7031 201.922 80.2344 201.922C78.5469 201.922 72.6562 202.047 62.5625 202.297C61.7812 200.141 61.7812 198.125 62.5625 196.25C69.3438 195.562 72.7656 194.641 72.8281 193.484C73.2031 185.672 73.3906 175.844 73.3906 164C73.3906 153.938 73.2344 145.234 72.9219 137.891C72.8594 136.734 69.375 135.812 62.4688 135.125C61.875 132.938 61.9375 130.922 62.6562 129.078C72.25 129.391 78.6094 129.547 81.7344 129.547H125.141C125.922 135.672 128.359 142.125 132.453 148.906C131.734 150.406 130.062 151.625 127.438 152.562C124.875 147.906 121.094 144.031 116.094 140.938C111.125 137.812 104.672 136.25 96.7344 136.25H90.9688C90.6562 147.469 90.5 156.078 90.5 162.078C92.0312 162.141 94.2344 162.172 97.1094 162.172C99.7344 162.172 101.828 161.297 103.391 159.547C104.953 157.766 106.672 155 108.547 151.25L110.562 147.312C113.188 148.25 114.844 149.453 115.531 150.922C112.219 156.891 110.562 161.797 110.562 165.641C110.562 169.797 112.219 174.688 115.531 180.312C114.781 181.906 113.188 183.125 110.75 183.969C110.031 183 109.203 181.531 108.266 179.562C106.984 177.438 105.969 175.859 105.219 174.828C104.469 173.766 103.359 172.703 101.891 171.641C100.422 170.578 98.7969 170.016 97.0156 169.953ZM83.2812 167.188L96.6406 167.094C97.9844 167.094 99.25 167.312 100.438 167.75C101.625 168.188 102.562 168.641 103.25 169.109C103.969 169.547 104.781 170.406 105.688 171.688C106.625 172.969 107.281 173.906 107.656 174.5C108.062 175.062 108.719 176.25 109.625 178.062C110.562 179.875 111.188 181.047 111.5 181.578C112.469 181.172 113.078 180.75 113.328 180.312C110.203 174.75 108.641 169.859 108.641 165.641C108.641 163.703 109.078 161.344 109.953 158.562C110.859 155.781 111.984 153.234 113.328 150.922C113.203 150.484 112.594 150.078 111.5 149.703C111.25 150.141 110.75 151.078 110 152.516C109.281 153.953 108.812 154.891 108.594 155.328C108.375 155.734 107.922 156.5 107.234 157.625C106.578 158.75 106.047 159.5 105.641 159.875C105.266 160.25 104.703 160.812 103.953 161.562C103.234 162.281 102.531 162.781 101.844 163.062C101.188 163.312 100.406 163.547 99.5 163.766C98.5938 163.984 97.6406 164.094 96.6406 164.094C90.7969 164.094 86.3438 164.031 83.2812 163.906C83.2812 156.344 83.4688 146.484 83.8438 134.328H96.8281C112.109 134.328 122.609 139.609 128.328 150.172C129.141 149.859 129.672 149.438 129.922 148.906C126.797 142.531 123.297 138.031 119.422 135.406C115.547 132.781 109.766 131.469 102.078 131.469H80.4219C76.5156 131.469 71.0312 131.344 63.9688 131.094V133.297C71.1562 133.984 74.7812 135.484 74.8438 137.797C75.1562 145.141 75.3125 153.875 75.3125 164C75.3125 173.906 75.125 183.766 74.75 193.578C74.6875 195.891 71.0625 197.391 63.875 198.078C63.625 198.578 63.625 199.312 63.875 200.281C69.1875 200.094 74.6406 200 80.2344 200C86.8906 200 93.2812 200.094 99.4062 200.281C99.6562 199.781 99.6562 199.047 99.4062 198.078C89.0938 197.453 83.875 195.953 83.75 193.578C83.4375 186.203 83.2812 177.406 83.2812 167.188ZM178.812 134.891C176.406 135.078 174.25 135.656 172.344 136.625C170.438 137.594 168.766 138.859 167.328 140.422C165.891 141.953 164.656 143.719 163.625 145.719C162.625 147.688 161.797 149.781 161.141 152C160.516 154.219 160.047 156.516 159.734 158.891C159.453 161.234 159.312 163.547 159.312 165.828C159.312 168.109 159.453 170.438 159.734 172.812C160.047 175.156 160.531 177.438 161.188 179.656C161.844 181.875 162.672 183.969 163.672 185.938C164.703 187.906 165.938 189.656 167.375 191.188C168.844 192.688 170.516 193.906 172.391 194.844C174.297 195.781 176.438 196.344 178.812 196.531C181.25 196.344 183.422 195.781 185.328 194.844C187.234 193.875 188.906 192.641 190.344 191.141C191.812 189.609 193.047 187.859 194.047 185.891C195.078 183.891 195.906 181.797 196.531 179.609C197.188 177.391 197.656 175.109 197.938 172.766C198.25 170.391 198.406 168.078 198.406 165.828C198.406 163.547 198.25 161.234 197.938 158.891C197.656 156.516 197.188 154.219 196.531 152C195.906 149.75 195.078 147.641 194.047 145.672C193.047 143.672 191.812 141.906 190.344 140.375C188.906 138.844 187.219 137.594 185.281 136.625C183.375 135.656 181.219 135.078 178.812 134.891ZM177.172 198.547C174.078 198.547 171.312 198.094 168.875 197.188C166.438 196.25 164.281 195 162.406 193.438C160.562 191.844 158.984 189.984 157.672 187.859C156.391 185.734 155.328 183.469 154.484 181.062C153.672 178.625 153.078 176.109 152.703 173.516C152.328 170.891 152.141 168.328 152.141 165.828C152.141 163.328 152.328 160.781 152.703 158.188C153.078 155.562 153.672 153.031 154.484 150.594C155.297 148.156 156.359 145.859 157.672 143.703C158.984 141.547 160.562 139.672 162.406 138.078C164.25 136.484 166.391 135.219 168.828 134.281C171.297 133.344 174.078 132.875 177.172 132.875C180.016 132.875 182.562 133.344 184.812 134.281C187.062 135.188 189.031 136.453 190.719 138.078C192.438 139.672 193.906 141.547 195.125 143.703C196.344 145.859 197.328 148.156 198.078 150.594C198.859 153.031 199.422 155.562 199.766 158.188C200.141 160.781 200.328 163.328 200.328 165.828C200.328 168.328 200.156 170.875 199.812 173.469C199.469 176.031 198.906 178.531 198.125 180.969C197.375 183.375 196.391 185.656 195.172 187.812C193.984 189.938 192.531 191.797 190.812 193.391C189.094 194.984 187.109 196.25 184.859 197.188C182.609 198.094 180.047 198.547 177.172 198.547ZM177.172 201.922C179.328 201.922 181.656 201.703 184.156 201.266C186.656 200.828 189.141 200.078 191.609 199.016C194.109 197.953 196.516 196.531 198.828 194.75C201.141 192.969 203.172 190.75 204.922 188.094C206.703 185.406 208.125 182.234 209.188 178.578C210.25 174.891 210.781 170.641 210.781 165.828C210.781 161.109 210.25 156.938 209.188 153.312C208.156 149.656 206.766 146.484 205.016 143.797C203.266 141.109 201.25 138.859 198.969 137.047C196.688 135.234 194.297 133.781 191.797 132.688C189.297 131.562 186.781 130.766 184.25 130.297C181.75 129.797 179.391 129.547 177.172 129.547C175.016 129.547 172.641 129.766 170.047 130.203C167.453 130.609 164.844 131.344 162.219 132.406C159.594 133.438 157.047 134.844 154.578 136.625C152.109 138.406 149.922 140.641 148.016 143.328C146.109 146.016 144.578 149.219 143.422 152.938C142.266 156.625 141.688 160.922 141.688 165.828C141.688 170.578 142.234 174.766 143.328 178.391C144.453 182.016 145.938 185.172 147.781 187.859C149.625 190.516 151.75 192.75 154.156 194.562C156.594 196.344 159.125 197.781 161.75 198.875C164.375 199.969 167.016 200.75 169.672 201.219C172.328 201.688 174.828 201.922 177.172 201.922ZM178.812 204.031C172.531 204.031 166.969 203.109 162.125 201.266C157.281 199.453 153.203 196.891 149.891 193.578C146.578 190.234 144.062 186.219 142.344 181.531C140.625 176.812 139.766 171.578 139.766 165.828C139.766 160.078 140.625 154.859 142.344 150.172C144.062 145.453 146.578 141.438 149.891 138.125C153.203 134.781 157.281 132.203 162.125 130.391C166.969 128.547 172.531 127.625 178.812 127.625C184.719 127.625 190.078 128.469 194.891 130.156C199.734 131.844 203.859 134.312 207.266 137.562C210.703 140.781 213.344 144.766 215.188 149.516C217.062 154.266 218 159.703 218 165.828C218 171.984 217.062 177.438 215.188 182.188C213.344 186.906 210.703 190.891 207.266 194.141C203.859 197.391 199.734 199.844 194.891 201.5C190.078 203.188 184.719 204.031 178.812 204.031ZM247.719 134.328H247.812C249.75 134.203 252.25 134.141 255.312 134.141C260.062 134.141 263.688 135.609 266.188 138.547C268.719 141.484 269.984 145.297 269.984 149.984C269.984 154.734 268.828 158.859 266.516 162.359C264.234 165.828 260.656 167.562 255.781 167.562C252.906 167.562 250.062 167.203 247.25 166.484C247.25 155.484 247.406 144.766 247.719 134.328ZM268.062 149.984C268.062 145.953 266.844 142.562 264.406 139.812C262 137.062 258.812 135.844 254.844 136.156C254.594 148.188 254.469 157.828 254.469 165.078C255.094 165.266 256.047 165.422 257.328 165.547C260.984 165.141 263.688 163.422 265.438 160.391C267.188 157.359 268.062 153.891 268.062 149.984ZM238.719 193.578C238.656 195.891 235.031 197.391 227.844 198.078C227.594 198.578 227.594 199.312 227.844 200.281C233.156 200.094 238.609 200 244.203 200C250.859 200 257.25 200.094 263.375 200.281C263.625 199.781 263.625 199.047 263.375 198.078C253 197.453 247.781 195.953 247.719 193.578C247.406 184.797 247.25 176.953 247.25 170.047C250.781 170.766 254.047 171.125 257.047 171.125C262.172 180.656 268.922 190.281 277.297 200C278.891 200 281.188 200.016 284.188 200.047C287.219 200.078 289.938 200.109 292.344 200.141C294.781 200.172 297.094 200.219 299.281 200.281C299.531 199.719 299.531 198.984 299.281 198.078C294.156 197.703 289.828 196.453 286.297 194.328C282.797 192.172 278.703 188.203 274.016 182.422C270.828 178.391 267.953 174.141 265.391 169.672C270.016 168.141 273.656 165.594 276.312 162.031C278.969 158.469 280.297 154.453 280.297 149.984C280.297 144.359 278.484 139.812 274.859 136.344C271.234 132.844 266.219 131.094 259.812 131.094C238.688 131.344 228.062 131.344 227.938 131.094C227.75 131.844 227.75 132.578 227.938 133.297C235.125 133.984 238.75 135.484 238.812 137.797C239.125 145.141 239.281 153.875 239.281 164C239.281 173.906 239.094 183.766 238.719 193.578ZM236.797 193.484C237.172 185.672 237.359 175.844 237.359 164C237.359 153.938 237.203 145.234 236.891 137.891C236.828 136.734 233.344 135.812 226.438 135.125C225.906 133.062 225.969 131.047 226.625 129.078C230.062 129.266 233.797 129.359 237.828 129.359C241.859 129.359 246.484 129.328 251.703 129.266C256.922 129.203 260.75 129.172 263.188 129.172C270.75 129.172 276.688 131.094 281 134.938C285.312 138.75 287.469 143.766 287.469 149.984C287.469 154.391 286.203 158.453 283.672 162.172C281.141 165.891 277.734 168.703 273.453 170.609C275.578 174.078 278.047 177.641 280.859 181.297C284.172 185.703 287.422 189.203 290.609 191.797C293.828 194.391 297.391 195.875 301.297 196.25C301.797 198.25 301.734 200.266 301.109 202.297C296.641 202.172 288.422 202.047 276.453 201.922C267.672 191.672 260.812 182.047 255.875 173.047H254.469C254.469 178.859 254.625 185.672 254.938 193.484C254.938 193.672 255.016 193.859 255.172 194.047C255.328 194.234 255.938 194.531 257 194.938C258.062 195.344 259.672 195.703 261.828 196.016C264.016 196.297 265.234 196.469 265.484 196.531C266.016 198.281 265.922 200.203 265.203 202.297C253.672 202.047 246.672 201.922 244.203 201.922C242.516 201.922 236.625 202.047 226.531 202.297C225.75 200.141 225.75 198.125 226.531 196.25C233.312 195.562 236.734 194.641 236.797 193.484ZM343.484 201.922C348.234 201.922 353.094 200.844 358.062 198.688C363.062 196.5 367.016 193.297 369.922 189.078C369.922 188.672 369.734 188.328 369.359 188.047C369.016 187.766 368.625 187.625 368.188 187.625C363.5 193.312 356.609 196.156 347.516 196.156C337.922 196.156 330.672 193.266 325.766 187.484C320.891 181.672 318.453 174.453 318.453 165.828C318.453 161.922 318.875 158.156 319.719 154.531C320.594 150.875 321.938 147.391 323.75 144.078C325.594 140.734 328.203 138.031 331.578 135.969C334.984 133.906 338.953 132.875 343.484 132.875C346.578 132.875 349.438 133.359 352.062 134.328C354.688 135.297 356.844 136.438 358.531 137.75C360.219 139.062 361.859 140.828 363.453 143.047C365.078 145.234 366.297 147.141 367.109 148.766C367.953 150.359 368.953 152.391 370.109 154.859C371.047 154.734 371.625 154.391 371.844 153.828C369.531 144.547 366.031 138.188 361.344 134.75C356.688 131.281 350.734 129.547 343.484 129.547C340.547 129.547 337.547 129.906 334.484 130.625C331.422 131.312 328.266 132.562 325.016 134.375C321.797 136.156 318.953 138.375 316.484 141.031C314.016 143.656 311.984 147.125 310.391 151.438C308.797 155.719 308 160.516 308 165.828C308 171.141 308.797 175.938 310.391 180.219C311.984 184.5 314.016 187.953 316.484 190.578C318.953 193.203 321.797 195.406 325.016 197.188C328.266 198.938 331.422 200.156 334.484 200.844C337.547 201.562 340.547 201.922 343.484 201.922ZM368.938 156.969C367.594 153.969 366.359 151.5 365.234 149.562C364.109 147.594 362.609 145.406 360.734 143C358.859 140.562 356.625 138.672 354.031 137.328C351.438 135.984 348.531 135.172 345.312 134.891C341.75 135.172 338.641 136.312 335.984 138.312C333.328 140.281 331.266 142.812 329.797 145.906C328.359 149 327.297 152.219 326.609 155.562C325.953 158.875 325.625 162.297 325.625 165.828C325.625 173.703 327.609 180.312 331.578 185.656C335.547 191 341.469 193.859 349.344 194.234C356.969 193.859 362.953 191.016 367.297 185.703C368.516 185.703 369.578 186.109 370.484 186.922C371.391 187.703 371.844 188.641 371.844 189.734C368.688 194.328 364.422 197.828 359.047 200.234C353.672 202.641 348.484 203.844 343.484 203.844C340.359 203.844 337.188 203.469 333.969 202.719C330.781 202 327.469 200.719 324.031 198.875C320.625 197 317.609 194.672 314.984 191.891C312.359 189.109 310.219 185.469 308.562 180.969C306.906 176.438 306.078 171.391 306.078 165.828C306.078 160.016 306.938 154.828 308.656 150.266C310.375 145.672 312.578 142 315.266 139.25C317.953 136.5 321.094 134.219 324.688 132.406C328.281 130.562 331.766 129.312 335.141 128.656C338.547 127.969 341.969 127.625 345.406 127.625C350.094 127.625 355.188 128.25 360.688 129.5C366.188 130.75 370.125 131.531 372.5 131.844C371.469 135.875 371.062 139.422 371.281 142.484C371.5 145.516 372.391 149.234 373.953 153.641C373.047 155.484 371.375 156.594 368.938 156.969ZM457.672 198.078C455.922 197.984 454.219 197.859 452.562 197.703C450.938 197.516 449.453 197.266 448.109 196.953C446.766 196.641 445.625 196.234 444.688 195.734C443.781 195.203 443.188 194.547 442.906 193.766L416.984 129.734C416.453 129.766 415.938 129.984 415.438 130.391C415.219 134.266 414.031 137.375 411.875 139.719L412.953 142.484L393.172 192.219C391.922 195.344 388.078 197.297 381.641 198.078C381.453 198.516 381.359 198.906 381.359 199.25C381.359 199.625 381.453 200 381.641 200.375C385.203 200.25 388.062 200.156 390.219 200.094C392.406 200.031 393.906 200 394.719 200C395.438 200 397.062 200.031 399.594 200.094C402.156 200.156 405.625 200.25 410 200.375C410.188 200 410.281 199.625 410.281 199.25C410.281 198.906 410.188 198.516 410 198.078C407.406 197.828 405.297 197.562 403.672 197.281C402.047 196.969 400.781 196.641 399.875 196.297C398.969 195.953 398.359 195.578 398.047 195.172C397.734 194.734 397.578 194.25 397.578 193.719C397.578 193.375 397.641 193.031 397.766 192.688L404.609 175.531C408.078 175.469 410.875 175.422 413 175.391C415.156 175.359 416.641 175.344 417.453 175.344C419.234 175.344 420.812 175.359 422.188 175.391C423.594 175.391 424.797 175.406 425.797 175.438L432.594 192.688C432.75 193.156 432.828 193.516 432.828 193.766C432.828 194.609 432.391 195.359 431.516 196.016C430.672 196.672 429.625 197.125 428.375 197.375L423.312 198.078C423.125 198.516 423.031 198.906 423.031 199.25C423.031 199.625 423.125 200 423.312 200.375C425.969 200.281 428.656 200.203 431.375 200.141C434.125 200.078 436.938 200.047 439.812 200.047C442.688 200.047 445.594 200.078 448.531 200.141C451.5 200.203 454.547 200.281 457.672 200.375C457.891 199.938 458 199.562 458 199.25C458 199.062 457.969 198.875 457.906 198.688C457.844 198.5 457.766 198.297 457.672 198.078ZM417.453 171.688C412.922 171.688 409.188 171.625 406.25 171.5L415.156 148.531H415.344L424.297 171.594C422.609 171.656 420.328 171.688 417.453 171.688ZM415.25 153.453L409.016 169.672C412.797 169.859 416.953 169.891 421.484 169.766L415.25 153.453ZM459.125 196.344C459.906 198.219 459.875 200.203 459.031 202.297H421.859C421.109 200.141 421.109 198.156 421.859 196.344C425.266 196.156 427.672 195.812 429.078 195.312C430.484 194.781 430.969 193.938 430.531 192.781L424.391 177.266C418.609 177.047 412.422 177.109 405.828 177.453L399.781 192.969C399.594 193.5 399.734 193.984 400.203 194.422C400.703 194.828 401.5 195.156 402.594 195.406C403.688 195.656 404.969 195.859 406.438 196.016C407.906 196.172 409.562 196.281 411.406 196.344C412.188 198.219 412.156 200.203 411.312 202.297C401.062 201.922 390.734 201.922 380.328 202.297C379.484 200.203 379.453 198.219 380.234 196.344C386.672 195.594 390.312 194.188 391.156 192.125L410.938 142.391C410.812 142.141 410.562 141.578 410.188 140.703C409.844 139.797 409.641 139.203 409.578 138.922C412.016 136.453 413.359 133.266 413.609 129.359C416.359 128.016 419.594 127.25 423.312 127.062L449.609 192.312C450.203 193.781 451.141 194.766 452.422 195.266C453.703 195.734 455.938 196.094 459.125 196.344Z" fill="#0A3871"/>
</svg>
